<svg width="31" height="31" viewBox="0 0 31 31" fill="none" xmlns="http://www.w3.org/2000/svg">
<path d="M15.5 0C12.4344 0 9.43763 0.909059 6.88867 2.61222C4.33971 4.31538 2.35303 6.73615 1.17987 9.5684C0.00671591 12.4007 -0.300236 15.5172 0.297835 18.5239C0.895906 21.5306 2.37214 24.2924 4.53985 26.4602C6.70756 28.6279 9.4694 30.1041 12.4761 30.7022C15.4828 31.3002 18.5993 30.9933 21.4316 29.8201C24.2638 28.647 26.6846 26.6603 28.3878 24.1113C30.0909 21.5624 31 18.5656 31 15.5C30.9957 11.3905 29.3612 7.45051 26.4554 4.54464C23.5495 1.63876 19.6095 0.00433973 15.5 0ZM28.6154 15.5C28.6167 17.1826 28.2928 18.8496 27.6615 20.4093L20.9995 16.3123C20.7163 16.1375 20.3994 16.0242 20.0695 15.9799L16.6685 15.5209C16.1998 15.4598 15.7236 15.5383 15.2994 15.7467C14.8752 15.9551 14.5219 16.284 14.2838 16.6923H12.9842L12.4179 15.5209C12.2613 15.1947 12.0322 14.9086 11.748 14.6847C11.4639 14.4607 11.1322 14.3047 10.7785 14.2287L9.58616 13.9709L10.7516 11.9231H13.2421C13.6451 11.9223 14.0413 11.8198 14.3941 11.625L16.2199 10.6175C16.3803 10.5281 16.5302 10.4211 16.667 10.2986L20.6776 6.67096C21.0797 6.3106 21.347 5.82395 21.4353 5.29127C21.5236 4.75859 21.4277 4.21172 21.1635 3.74086L21.1098 3.64399C23.354 4.70812 25.2504 6.38688 26.579 8.48544C27.9075 10.584 28.6136 13.0163 28.6154 15.5ZM17.7818 2.58433L19.0769 4.90336L15.0663 8.53096L13.2421 9.53846H10.7516C10.3325 9.53784 9.92052 9.64773 9.55734 9.85706C9.19416 10.0664 8.89258 10.3677 8.68299 10.7308L7.38188 13.0006L5.86914 8.97062L7.49962 5.115C8.94282 3.99988 10.603 3.19851 12.3739 2.76221C14.1448 2.32591 15.9872 2.26431 17.7833 2.58135L17.7818 2.58433ZM2.38462 15.5C2.38263 13.5506 2.81755 11.6255 3.65741 9.86634L5.34751 14.3777C5.48835 14.7513 5.72072 15.0835 6.0233 15.3439C6.32588 15.6042 6.68899 15.7845 7.07933 15.8681L10.2732 16.5552L10.8411 17.7356C11.0381 18.137 11.3435 18.4754 11.7228 18.7124C12.102 18.9495 12.54 19.0757 12.9872 19.0769H13.2078L12.1302 21.4958C11.9404 21.9217 11.8796 22.394 11.9553 22.8541C12.0311 23.3142 12.2401 23.742 12.5565 24.0846L12.5774 24.1055L15.5 27.1161L15.2109 28.6064C11.7857 28.5267 8.52733 27.1116 6.13103 24.6629C3.73474 22.2143 2.3903 18.9261 2.38462 15.5ZM17.673 28.4336L17.8414 27.5676C17.9106 27.1998 17.8927 26.8208 17.7892 26.4611C17.6857 26.1013 17.4994 25.7708 17.2452 25.496C17.2379 25.4894 17.231 25.4825 17.2244 25.4751L14.3077 22.4661L16.3495 17.8846L19.7506 18.3437L26.5646 22.5346C25.5774 24.085 24.276 25.411 22.7444 26.4271C21.2128 27.4432 19.4852 28.1267 17.673 28.4336Z" fill="#627573"/>
</svg>
