<svg width="24" height="19" viewBox="0 0 24 19" fill="none" xmlns="http://www.w3.org/2000/svg">
<path d="M6 1.5C6 1.23478 6.10536 0.98043 6.29289 0.792893C6.48043 0.605357 6.73478 0.5 7 0.5H23C23.2652 0.5 23.5196 0.605357 23.7071 0.792893C23.8946 0.98043 24 1.23478 24 1.5C24 1.76522 23.8946 2.01957 23.7071 2.20711C23.5196 2.39464 23.2652 2.5 23 2.5H7C6.73478 2.5 6.48043 2.39464 6.29289 2.20711C6.10536 2.01957 6 1.76522 6 1.5ZM23 8.5H7C6.73478 8.5 6.48043 8.60536 6.29289 8.79289C6.10536 8.98043 6 9.23478 6 9.5C6 9.76522 6.10536 10.0196 6.29289 10.2071C6.48043 10.3946 6.73478 10.5 7 10.5H23C23.2652 10.5 23.5196 10.3946 23.7071 10.2071C23.8946 10.0196 24 9.76522 24 9.5C24 9.23478 23.8946 8.98043 23.7071 8.79289C23.5196 8.60536 23.2652 8.5 23 8.5ZM23 16.5H7C6.73478 16.5 6.48043 16.6054 6.29289 16.7929C6.10536 16.9804 6 17.2348 6 17.5C6 17.7652 6.10536 18.0196 6.29289 18.2071C6.48043 18.3946 6.73478 18.5 7 18.5H23C23.2652 18.5 23.5196 18.3946 23.7071 18.2071C23.8946 18.0196 24 17.7652 24 17.5C24 17.2348 23.8946 16.9804 23.7071 16.7929C23.5196 16.6054 23.2652 16.5 23 16.5ZM1.5 0C1.20333 0 0.913319 0.0879736 0.666645 0.252796C0.419972 0.417618 0.227713 0.651886 0.114181 0.925975C0.000649929 1.20006 -0.0290551 1.50166 0.0288228 1.79264C0.0867006 2.08361 0.229562 2.35088 0.43934 2.56066C0.649119 2.77044 0.916394 2.9133 1.20737 2.97118C1.49834 3.02906 1.79994 2.99935 2.07403 2.88582C2.34811 2.77229 2.58238 2.58003 2.74721 2.33335C2.91203 2.08668 3 1.79667 3 1.5C3 1.10218 2.84197 0.720644 2.56066 0.43934C2.27936 0.158035 1.89783 0 1.5 0ZM1.5 8C1.20333 8 0.913319 8.08797 0.666645 8.2528C0.419972 8.41762 0.227713 8.65189 0.114181 8.92597C0.000649929 9.20006 -0.0290551 9.50166 0.0288228 9.79263C0.0867006 10.0836 0.229562 10.3509 0.43934 10.5607C0.649119 10.7704 0.916394 10.9133 1.20737 10.9712C1.49834 11.0291 1.79994 10.9993 2.07403 10.8858C2.34811 10.7723 2.58238 10.58 2.74721 10.3334C2.91203 10.0867 3 9.79667 3 9.5C3 9.10218 2.84197 8.72064 2.56066 8.43934C2.27936 8.15804 1.89783 8 1.5 8ZM1.5 16C1.20333 16 0.913319 16.088 0.666645 16.2528C0.419972 16.4176 0.227713 16.6519 0.114181 16.926C0.000649929 17.2001 -0.0290551 17.5017 0.0288228 17.7926C0.0867006 18.0836 0.229562 18.3509 0.43934 18.5607C0.649119 18.7704 0.916394 18.9133 1.20737 18.9712C1.49834 19.0291 1.79994 18.9993 2.07403 18.8858C2.34811 18.7723 2.58238 18.58 2.74721 18.3334C2.91203 18.0867 3 17.7967 3 17.5C3 17.1022 2.84197 16.7206 2.56066 16.4393C2.27936 16.158 1.89783 16 1.5 16Z" fill="#000"/>
</svg>
