<svg width="16" height="28" viewBox="0 0 16 28" fill="none" xmlns="http://www.w3.org/2000/svg">
<path fill-rule="evenodd" clip-rule="evenodd" d="M2.53 7.315C2.53 4.6992 5.1304 2.53 7.865 2.53C10.5996 2.53 13.2 4.6992 13.2 7.315C13.2 9.7328 11.9746 10.8658 10.3268 12.3288L10.2586 12.3882C8.624 13.838 6.6 15.631 6.6 19.195C6.6 19.3611 6.63272 19.5256 6.69629 19.6791C6.75986 19.8326 6.85304 19.972 6.97051 20.0895C7.08797 20.207 7.22743 20.3001 7.3809 20.3637C7.53438 20.4273 7.69888 20.46 7.865 20.46C8.03112 20.46 8.19562 20.4273 8.34909 20.3637C8.50257 20.3001 8.64202 20.207 8.75949 20.0895C8.87695 19.972 8.97013 19.8326 9.0337 19.6791C9.09728 19.5256 9.13 19.3611 9.13 19.195C9.13 16.808 10.3488 15.6882 12.0054 14.223L12.0494 14.179C13.695 12.7226 15.73 10.9186 15.73 7.315C15.73 2.9766 11.6468 0 7.865 0C4.0832 0 0 2.9766 0 7.315C-4.95082e-09 7.48112 0.0327204 7.64562 0.0962926 7.79909C0.159865 7.95257 0.253044 8.09202 0.37051 8.20949C0.487976 8.32695 0.627428 8.42013 0.780905 8.48371C0.934382 8.54728 1.09888 8.58 1.265 8.58C1.43112 8.58 1.59562 8.54728 1.74909 8.48371C1.90257 8.42013 2.04202 8.32695 2.15949 8.20949C2.27696 8.09202 2.37014 7.95257 2.43371 7.79909C2.49728 7.64562 2.53 7.48112 2.53 7.315ZM7.865 27.6826C8.37554 27.6826 8.86517 27.4798 9.22618 27.1188C9.58718 26.7578 9.79 26.2681 9.79 25.7576C9.79 25.2471 9.58718 24.7574 9.22618 24.3964C8.86517 24.0354 8.37554 23.8326 7.865 23.8326C7.35446 23.8326 6.86482 24.0354 6.50382 24.3964C6.14281 24.7574 5.94 25.2471 5.94 25.7576C5.94 26.2681 6.14281 26.7578 6.50382 27.1188C6.86482 27.4798 7.35446 27.6826 7.865 27.6826Z" fill="#627573"/>
</svg>
