<svg width="30" height="30" viewBox="0 0 262 262" fill="none" xmlns="http://www.w3.org/2000/svg">
<g filter="url(#filter0_d_378_3753)">
<circle cx="131" cy="127" r="127" fill="white"/>
<path d="M60.7497 91.26C60.1896 90.7025 59.7451 90.0398 59.4418 89.31C59.1385 88.5803 58.9824 87.7978 58.9824 87.0075C58.9824 86.2172 59.1385 85.4347 59.4418 84.705C59.7451 83.9752 60.1896 83.3125 60.7497 82.755C61.3272 82.1925 74.8272 69 101.002 69C114.817 69 125.182 75.9075 134.332 82.005C142.807 87.66 150.817 93 161.002 93C169.226 93.1227 177.369 91.3709 184.815 87.8775C187.702 86.5453 190.386 84.8106 192.787 82.725C193.347 82.17 194.01 81.7306 194.739 81.432C195.468 81.1333 196.249 80.9812 197.037 80.9843C197.825 80.9874 198.605 81.1458 199.332 81.4502C200.059 81.7547 200.718 82.1993 201.273 82.7588C201.828 83.3182 202.268 83.9814 202.566 84.7107C202.865 85.4399 203.017 86.2208 203.014 87.0089C203.011 87.7969 202.853 88.5766 202.548 89.3034C202.244 90.0302 201.799 90.69 201.24 91.245C200.677 91.8075 187.177 105 161.002 105C147.187 105 136.822 98.0925 127.672 91.995C119.197 86.34 111.187 81 101.002 81C92.7787 80.8773 84.6352 82.6291 77.1897 86.1225C74.3021 87.4547 71.6179 89.1894 69.2172 91.275C68.0907 92.3928 66.5673 93.0188 64.9803 93.016C63.3934 93.0132 61.8722 92.3818 60.7497 91.26ZM192.787 124.725C190.386 126.811 187.702 128.545 184.815 129.877C177.369 133.371 169.226 135.123 161.002 135C150.817 135 142.807 129.66 134.332 124.005C125.182 117.907 114.817 111 101.002 111C74.8272 111 61.3272 124.192 60.7647 124.755C59.6348 125.876 58.9966 127.4 58.9902 128.991C58.9839 130.583 59.61 132.111 60.7309 133.241C61.8518 134.371 63.3756 135.009 64.967 135.016C66.5585 135.022 68.0873 134.396 69.2172 133.275C71.6179 131.189 74.3021 129.455 77.1897 128.123C84.6352 124.629 92.7787 122.877 101.002 123C111.187 123 119.197 128.34 127.672 133.995C136.822 140.093 147.172 147 161.002 147C187.177 147 200.677 133.808 201.24 133.245C201.799 132.69 202.244 132.03 202.548 131.303C202.853 130.577 203.011 129.797 203.014 129.009C203.017 128.221 202.865 127.44 202.566 126.711C202.268 125.981 201.828 125.318 201.273 124.759C200.718 124.199 200.059 123.755 199.332 123.45C198.605 123.146 197.825 122.987 197.037 122.984C196.249 122.981 195.468 123.133 194.739 123.432C194.01 123.731 193.347 124.17 192.787 124.725ZM192.787 166.725C190.386 168.811 187.702 170.545 184.815 171.877C177.369 175.371 169.226 177.123 161.002 177C150.817 177 142.807 171.66 134.332 166.005C125.182 159.907 114.817 153 101.002 153C74.8272 153 61.3272 166.192 60.7647 166.755C59.6348 167.876 58.9966 169.4 58.9902 170.991C58.9839 172.583 59.61 174.111 60.7309 175.241C61.8518 176.371 63.3756 177.009 64.967 177.016C66.5585 177.022 68.0873 176.396 69.2172 175.275C71.6179 173.189 74.3021 171.455 77.1897 170.123C84.6352 166.629 92.7787 164.877 101.002 165C111.187 165 119.197 170.34 127.672 175.995C136.822 182.093 147.172 189 161.002 189C187.177 189 200.677 175.808 201.24 175.245C202.369 174.124 203.008 172.6 203.014 171.009C203.02 169.417 202.394 167.889 201.273 166.759C200.153 165.629 198.629 164.991 197.037 164.984C195.446 164.978 193.917 165.604 192.787 166.725Z" fill="#213D3A"/>
</g>
<defs>
<filter id="filter0_d_378_3753" x="0" y="0" width="262" height="262" filterUnits="userSpaceOnUse" color-interpolation-filters="sRGB">
<feFlood flood-opacity="0" result="BackgroundImageFix"/>
<feColorMatrix in="SourceAlpha" type="matrix" values="0 0 0 0 0 0 0 0 0 0 0 0 0 0 0 0 0 0 127 0" result="hardAlpha"/>
<feOffset dy="4"/>
<feGaussianBlur stdDeviation="2"/>
<feComposite in2="hardAlpha" operator="out"/>
<feColorMatrix type="matrix" values="0 0 0 0 0 0 0 0 0 0 0 0 0 0 0 0 0 0 0.25 0"/>
<feBlend mode="normal" in2="BackgroundImageFix" result="effect1_dropShadow_378_3753"/>
<feBlend mode="normal" in="SourceGraphic" in2="effect1_dropShadow_378_3753" result="shape"/>
</filter>
</defs>
</svg>
