<svg width="30" height="30" viewBox="0 0 254 254" fill="none" xmlns="http://www.w3.org/2000/svg">
<circle cx="127" cy="127" r="127" fill="white"/>
<path d="M111.68 106.56V166.16C111.68 167.741 111.052 169.257 109.934 170.374C108.817 171.492 107.301 172.12 105.72 172.12C104.139 172.12 102.623 171.492 101.506 170.374C100.388 169.257 99.76 167.741 99.76 166.16V106.56C99.76 104.979 100.388 103.463 101.506 102.346C102.623 101.228 104.139 100.6 105.72 100.6C107.301 100.6 108.817 101.228 109.934 102.346C111.052 103.463 111.68 104.979 111.68 106.56ZM141.48 100.6C139.899 100.6 138.383 101.228 137.266 102.346C136.148 103.463 135.52 104.979 135.52 106.56V166.16C135.52 167.741 136.148 169.257 137.266 170.374C138.383 171.492 139.899 172.12 141.48 172.12C143.061 172.12 144.577 171.492 145.694 170.374C146.812 169.257 147.44 167.741 147.44 166.16V106.56C147.44 104.979 146.812 103.463 145.694 102.346C144.577 101.228 143.061 100.6 141.48 100.6ZM213 112.52V160.2C213 164.942 211.116 169.49 207.763 172.843C204.41 176.196 199.862 178.08 195.12 178.08H183.2V184.04C183.2 187.201 181.944 190.233 179.709 192.469C177.473 194.704 174.441 195.96 171.28 195.96H75.92C72.7586 195.96 69.7267 194.704 67.4913 192.469C65.2559 190.233 64 187.201 64 184.04V82.72C64 59.7144 85.3889 41 111.68 41C124.174 41 136.198 45.321 145.071 52.92H153.4C161.303 52.92 168.883 56.0596 174.472 61.6482C180.06 67.2368 183.2 74.8165 183.2 82.72V94.64H195.12C199.862 94.64 204.41 96.5238 207.763 99.8769C211.116 103.23 213 107.778 213 112.52ZM76.665 76.76H170.252C169.02 73.2749 166.738 70.2573 163.72 68.1226C160.702 65.988 157.097 64.8411 153.4 64.84H142.776C141.241 64.8398 139.766 64.2474 138.656 63.1861C131.84 56.645 122.013 52.92 111.68 52.92C94.4109 52.92 79.9653 63.1712 76.665 76.76ZM171.28 184.04V88.68H75.92V184.04H171.28ZM201.08 112.52C201.08 110.939 200.452 109.423 199.334 108.306C198.217 107.188 196.701 106.56 195.12 106.56H183.2V166.16H195.12C196.701 166.16 198.217 165.532 199.334 164.414C200.452 163.297 201.08 161.781 201.08 160.2V112.52Z" fill="#213D3A"/>
</svg>
