<svg width="262" height="262" viewBox="0 0 262 262" fill="none" xmlns="http://www.w3.org/2000/svg">
<g filter="url(#filter0_d_378_3751)">
<circle cx="131" cy="127" r="127" fill="white"/>
<path d="M54.5312 108.969H72.0625V155.719H60.375C58.8251 155.719 57.3388 156.334 56.2428 157.43C55.1469 158.526 54.5313 160.012 54.5312 161.562C54.5312 163.112 55.1469 164.599 56.2428 165.694C57.3388 166.79 58.8251 167.406 60.375 167.406H200.625C202.175 167.406 203.661 166.79 204.757 165.694C205.853 164.599 206.469 163.112 206.469 161.562C206.469 160.012 205.853 158.526 204.757 157.43C203.661 156.334 202.175 155.719 200.625 155.719H188.938V108.969H206.469C207.74 108.967 208.977 108.551 209.99 107.784C211.004 107.016 211.74 105.939 212.086 104.716C212.432 103.492 212.37 102.189 211.908 101.004C211.447 99.8195 210.612 98.8175 209.529 98.1503L133.561 51.4003C132.64 50.8343 131.581 50.5347 130.5 50.5347C129.419 50.5347 128.36 50.8343 127.439 51.4003L51.4706 98.1503C50.3882 98.8175 49.553 99.8195 49.0917 101.004C48.6303 102.189 48.568 103.492 48.9141 104.716C49.2602 105.939 49.996 107.016 51.0097 107.784C52.0234 108.551 53.2598 108.967 54.5312 108.969ZM83.75 108.969H107.125V155.719H83.75V108.969ZM142.188 108.969V155.719H118.812V108.969H142.188ZM177.25 155.719H153.875V108.969H177.25V155.719ZM130.5 63.2339L185.826 97.281H75.1743L130.5 63.2339ZM218.156 184.937C218.156 186.487 217.541 187.974 216.445 189.069C215.349 190.165 213.862 190.781 212.312 190.781H48.6875C47.1376 190.781 45.6513 190.165 44.5553 189.069C43.4594 187.974 42.8438 186.487 42.8438 184.937C42.8438 183.387 43.4594 181.901 44.5553 180.805C45.6513 179.709 47.1376 179.094 48.6875 179.094H212.312C213.862 179.094 215.349 179.709 216.445 180.805C217.541 181.901 218.156 183.387 218.156 184.937Z" fill="#213D3A"/>
</g>
<defs>
<filter id="filter0_d_378_3751" x="0" y="0" width="262" height="262" filterUnits="userSpaceOnUse" color-interpolation-filters="sRGB">
<feFlood flood-opacity="0" result="BackgroundImageFix"/>
<feColorMatrix in="SourceAlpha" type="matrix" values="0 0 0 0 0 0 0 0 0 0 0 0 0 0 0 0 0 0 127 0" result="hardAlpha"/>
<feOffset dy="4"/>
<feGaussianBlur stdDeviation="2"/>
<feComposite in2="hardAlpha" operator="out"/>
<feColorMatrix type="matrix" values="0 0 0 0 0 0 0 0 0 0 0 0 0 0 0 0 0 0 0.25 0"/>
<feBlend mode="normal" in2="BackgroundImageFix" result="effect1_dropShadow_378_3751"/>
<feBlend mode="normal" in="SourceGraphic" in2="effect1_dropShadow_378_3751" result="shape"/>
</filter>
</defs>
</svg>
