<svg width="30" height="30" viewBox="0 0 254 254" fill="none" xmlns="http://www.w3.org/2000/svg">
<circle cx="127" cy="127" r="127" fill="white"/>
<path d="M97.25 84.6071V63.3214C97.25 61.9101 97.8107 60.5566 98.8086 59.5586C99.8066 58.5606 101.16 58 102.571 58C103.983 58 105.336 58.5606 106.334 59.5586C107.332 60.5566 107.893 61.9101 107.893 63.3214V84.6071C107.893 86.0185 107.332 87.372 106.334 88.37C105.336 89.3679 103.983 89.9286 102.571 89.9286C101.16 89.9286 99.8066 89.3679 98.8086 88.37C97.8107 87.372 97.25 86.0185 97.25 84.6071ZM123.857 89.9286C125.268 89.9286 126.622 89.3679 127.62 88.37C128.618 87.372 129.179 86.0185 129.179 84.6071V63.3214C129.179 61.9101 128.618 60.5566 127.62 59.5586C126.622 58.5606 125.268 58 123.857 58C122.446 58 121.092 58.5606 120.094 59.5586C119.096 60.5566 118.536 61.9101 118.536 63.3214V84.6071C118.536 86.0185 119.096 87.372 120.094 88.37C121.092 89.3679 122.446 89.9286 123.857 89.9286ZM145.143 89.9286C146.554 89.9286 147.908 89.3679 148.906 88.37C149.904 87.372 150.464 86.0185 150.464 84.6071V63.3214C150.464 61.9101 149.904 60.5566 148.906 59.5586C147.908 58.5606 146.554 58 145.143 58C143.732 58 142.378 58.5606 141.38 59.5586C140.382 60.5566 139.821 61.9101 139.821 63.3214V84.6071C139.821 86.0185 140.382 87.372 141.38 88.37C142.378 89.3679 143.732 89.9286 145.143 89.9286ZM209 127.179V132.5C208.998 139.269 206.416 145.782 201.781 150.714C197.145 155.646 190.805 158.626 184.049 159.047C180.419 169.315 174.239 178.491 166.089 185.714H182.393C183.804 185.714 185.158 186.275 186.156 187.273C187.154 188.271 187.714 189.624 187.714 191.036C187.714 192.447 187.154 193.801 186.156 194.799C185.158 195.797 183.804 196.357 182.393 196.357H65.3214C63.9101 196.357 62.5566 195.797 61.5586 194.799C60.5606 193.801 60 192.447 60 191.036C60 189.624 60.5606 188.271 61.5586 187.273C62.5566 186.275 63.9101 185.714 65.3214 185.714H81.6449C74.8554 179.716 69.4156 172.346 65.6845 164.09C61.9534 155.834 60.0159 146.881 60 137.821V105.893C60 104.482 60.5606 103.128 61.5586 102.13C62.5566 101.132 63.9101 100.571 65.3214 100.571H182.393C189.45 100.571 196.217 103.375 201.207 108.364C206.197 113.354 209 120.122 209 127.179ZM177.071 111.214H70.6429V137.821C70.6634 147.813 73.487 157.598 78.7926 166.065C84.0983 174.531 91.6731 181.339 100.656 185.714H147.059C156.041 181.339 163.616 174.531 168.922 166.065C174.227 157.598 177.051 147.813 177.071 137.821V111.214ZM198.357 127.179C198.356 123.878 197.332 120.659 195.426 117.965C193.52 115.27 190.826 113.232 187.714 112.132V137.821C187.71 141.163 187.443 144.499 186.916 147.799C190.218 146.824 193.116 144.807 195.178 142.05C197.239 139.293 198.355 135.943 198.357 132.5V127.179Z" fill="#213D3A"/>
</svg>
