<svg width="262" height="262" viewBox="0 0 262 262" fill="none" xmlns="http://www.w3.org/2000/svg">
<g filter="url(#filter0_d_378_3746)">
<circle cx="131" cy="127" r="127" fill="white"/>
<path d="M88.2188 103.001V67.9386C88.2188 66.3887 88.8345 64.9023 89.9304 63.8064C91.0263 62.7105 92.5127 62.0948 94.0626 62.0948C95.6124 62.0948 97.0988 62.7105 98.1947 63.8064C99.2906 64.9023 99.9063 66.3887 99.9063 67.9386V103.001C99.9063 104.551 99.2906 106.037 98.1947 107.133C97.0988 108.229 95.6124 108.845 94.0626 108.845C92.5127 108.845 91.0263 108.229 89.9304 107.133C88.8345 106.037 88.2188 104.551 88.2188 103.001ZM193.406 67.9386V202.345C193.406 203.895 192.791 205.381 191.695 206.477C190.599 207.573 189.112 208.189 187.563 208.189C186.013 208.189 184.526 207.573 183.43 206.477C182.334 205.381 181.719 203.895 181.719 202.345V167.282H146.656C145.106 167.282 143.62 166.667 142.524 165.571C141.428 164.475 140.813 162.988 140.813 161.439C141.084 147.44 142.852 133.511 146.087 119.89C153.231 90.3128 166.773 70.4879 185.262 62.5696C186.15 62.189 187.119 62.0347 188.082 62.1207C189.045 62.2067 189.972 62.5302 190.779 63.0622C191.586 63.5943 192.248 64.3183 192.707 65.1693C193.166 66.0203 193.406 66.9718 193.406 67.9386ZM181.719 78.0921C158.22 96.0397 153.618 139.758 152.719 155.595H181.719V78.0921ZM123.201 66.9816C123.087 66.2143 122.82 65.4775 122.418 64.8141C122.016 64.1507 121.486 63.574 120.858 63.1177C120.231 62.6614 119.519 62.3346 118.764 62.1563C118.009 61.9781 117.226 61.952 116.46 62.0795C115.695 62.2071 114.963 62.4857 114.307 62.8992C113.65 63.3127 113.083 63.8527 112.637 64.4879C112.192 65.123 111.877 65.8405 111.712 66.5985C111.546 67.3565 111.534 68.1398 111.674 68.9028L117.438 103.461C117.438 109.661 114.975 115.606 110.591 119.99C106.208 124.374 100.262 126.836 94.0626 126.836C87.8631 126.836 81.9176 124.374 77.5339 119.99C73.1503 115.606 70.6876 109.661 70.6876 103.461L76.4437 68.9028C76.5842 68.1398 76.5715 67.3565 76.4062 66.5985C76.2409 65.8405 75.9263 65.123 75.4808 64.4879C75.0352 63.8527 74.4677 63.3127 73.8113 62.8992C73.1548 62.4857 72.4226 62.2071 71.6574 62.0795C70.8921 61.952 70.1091 61.9781 69.3541 62.1563C68.599 62.3346 67.887 62.6614 67.2596 63.1177C66.6321 63.574 66.1018 64.1507 65.6996 64.8141C65.2974 65.4775 65.0313 66.2143 64.9169 66.9816L59.0731 102.044C59.0231 102.361 58.9987 102.681 59.0001 103.001C59.0117 111.283 61.9506 119.295 67.2972 125.62C72.6439 131.945 80.0542 136.176 88.2188 137.567V202.345C88.2188 203.895 88.8345 205.381 89.9304 206.477C91.0263 207.573 92.5127 208.189 94.0626 208.189C95.6124 208.189 97.0988 207.573 98.1947 206.477C99.2906 205.381 99.9063 203.895 99.9063 202.345V137.567C108.071 136.176 115.481 131.945 120.828 125.62C126.175 119.295 129.113 111.283 129.125 103.001C129.124 102.68 129.097 102.36 129.045 102.044L123.201 66.9816Z" fill="#213D3A"/>
</g>
<defs>
<filter id="filter0_d_378_3746" x="0" y="0" width="262" height="262" filterUnits="userSpaceOnUse" color-interpolation-filters="sRGB">
<feFlood flood-opacity="0" result="BackgroundImageFix"/>
<feColorMatrix in="SourceAlpha" type="matrix" values="0 0 0 0 0 0 0 0 0 0 0 0 0 0 0 0 0 0 127 0" result="hardAlpha"/>
<feOffset dy="4"/>
<feGaussianBlur stdDeviation="2"/>
<feComposite in2="hardAlpha" operator="out"/>
<feColorMatrix type="matrix" values="0 0 0 0 0 0 0 0 0 0 0 0 0 0 0 0 0 0 0.25 0"/>
<feBlend mode="normal" in2="BackgroundImageFix" result="effect1_dropShadow_378_3746"/>
<feBlend mode="normal" in="SourceGraphic" in2="effect1_dropShadow_378_3746" result="shape"/>
</filter>
</defs>
</svg>
