<svg width="30" height="30" viewBox="0 0 262 262" fill="none" xmlns="http://www.w3.org/2000/svg">
<g filter="url(#filter0_d_431_3756)">
<circle cx="131" cy="127" r="127" fill="white"/>
<path d="M215.938 176.813H203.875V92.375C203.875 89.1759 202.604 86.1077 200.342 83.8456C198.08 81.5834 195.012 80.3125 191.812 80.3125H143.562V44.125C143.564 41.9407 142.972 39.797 141.85 37.9226C140.729 36.0483 139.119 34.5138 137.193 33.4828C135.268 32.4518 133.098 31.9631 130.916 32.0688C128.734 32.1745 126.622 32.8707 124.805 34.083L64.4928 74.2813C62.8383 75.3852 61.4824 76.881 60.5459 78.6357C59.6093 80.3904 59.1212 82.3494 59.125 84.3384V176.813H47.0625C45.4629 176.813 43.9288 177.448 42.7978 178.579C41.6667 179.71 41.0312 181.244 41.0312 182.844C41.0312 184.443 41.6667 185.977 42.7978 187.109C43.9288 188.24 45.4629 188.875 47.0625 188.875H215.938C217.537 188.875 219.071 188.24 220.202 187.109C221.333 185.977 221.969 184.443 221.969 182.844C221.969 181.244 221.333 179.71 220.202 178.579C219.071 177.448 217.537 176.813 215.938 176.813ZM191.812 92.375V176.813H143.562V92.375H191.812ZM71.1875 84.3384L131.5 44.125V176.813H71.1875V84.3384ZM119.438 104.438V116.5C119.438 118.1 118.802 119.634 117.671 120.765C116.54 121.896 115.006 122.531 113.406 122.531C111.807 122.531 110.273 121.896 109.142 120.765C108.01 119.634 107.375 118.1 107.375 116.5V104.438C107.375 102.838 108.01 101.304 109.142 100.173C110.273 99.0417 111.807 98.4063 113.406 98.4063C115.006 98.4063 116.54 99.0417 117.671 100.173C118.802 101.304 119.438 102.838 119.438 104.438ZM95.3125 104.438V116.5C95.3125 118.1 94.6771 119.634 93.546 120.765C92.4149 121.896 90.8808 122.531 89.2812 122.531C87.6817 122.531 86.1476 121.896 85.0165 120.765C83.8854 119.634 83.25 118.1 83.25 116.5V104.438C83.25 102.838 83.8854 101.304 85.0165 100.173C86.1476 99.0417 87.6817 98.4063 89.2812 98.4063C90.8808 98.4063 92.4149 99.0417 93.546 100.173C94.6771 101.304 95.3125 102.838 95.3125 104.438ZM95.3125 146.656V158.719C95.3125 160.318 94.6771 161.852 93.546 162.984C92.4149 164.115 90.8808 164.75 89.2812 164.75C87.6817 164.75 86.1476 164.115 85.0165 162.984C83.8854 161.852 83.25 160.318 83.25 158.719V146.656C83.25 145.057 83.8854 143.523 85.0165 142.392C86.1476 141.26 87.6817 140.625 89.2812 140.625C90.8808 140.625 92.4149 141.26 93.546 142.392C94.6771 143.523 95.3125 145.057 95.3125 146.656ZM119.438 146.656V158.719C119.438 160.318 118.802 161.852 117.671 162.984C116.54 164.115 115.006 164.75 113.406 164.75C111.807 164.75 110.273 164.115 109.142 162.984C108.01 161.852 107.375 160.318 107.375 158.719V146.656C107.375 145.057 108.01 143.523 109.142 142.392C110.273 141.26 111.807 140.625 113.406 140.625C115.006 140.625 116.54 141.26 117.671 142.392C118.802 143.523 119.438 145.057 119.438 146.656Z" fill="#213D3A"/>
</g>
<defs>
<filter id="filter0_d_431_3756" x="0" y="0" width="262" height="262" filterUnits="userSpaceOnUse" color-interpolation-filters="sRGB">
<feFlood flood-opacity="0" result="BackgroundImageFix"/>
<feColorMatrix in="SourceAlpha" type="matrix" values="0 0 0 0 0 0 0 0 0 0 0 0 0 0 0 0 0 0 127 0" result="hardAlpha"/>
<feOffset dy="4"/>
<feGaussianBlur stdDeviation="2"/>
<feComposite in2="hardAlpha" operator="out"/>
<feColorMatrix type="matrix" values="0 0 0 0 0 0 0 0 0 0 0 0 0 0 0 0 0 0 0.25 0"/>
<feBlend mode="normal" in2="BackgroundImageFix" result="effect1_dropShadow_431_3756"/>
<feBlend mode="normal" in="SourceGraphic" in2="effect1_dropShadow_431_3756" result="shape"/>
</filter>
</defs>
</svg>
