<svg width="254" height="254" viewBox="0 0 254 254" fill="none" xmlns="http://www.w3.org/2000/svg">
<circle cx="127" cy="127" r="127" fill="white"/>
<path d="M127.5 76.9091C121.252 76.9091 115.144 78.7619 109.949 82.2331C104.754 85.7044 100.705 90.6382 98.3138 96.4107C95.9228 102.183 95.2972 108.535 96.5161 114.663C97.735 120.791 100.744 126.42 105.162 130.838C109.58 135.256 115.209 138.265 121.337 139.484C127.465 140.703 133.817 140.077 139.589 137.686C145.362 135.295 150.296 131.246 153.767 126.051C157.238 120.856 159.091 114.748 159.091 108.5C159.091 100.122 155.763 92.0863 149.838 86.1619C143.914 80.2374 135.878 76.9091 127.5 76.9091ZM127.5 127.455C123.751 127.455 120.086 126.343 116.969 124.26C113.852 122.177 111.423 119.217 109.988 115.754C108.554 112.29 108.178 108.479 108.91 104.802C109.641 101.125 111.446 97.748 114.097 95.0971C116.748 92.4463 120.125 90.641 123.802 89.9097C127.479 89.1783 131.29 89.5537 134.754 90.9883C138.217 92.4229 141.177 94.8524 143.26 97.9694C145.343 101.086 146.455 104.751 146.455 108.5C146.455 113.527 144.458 118.348 140.903 121.903C137.348 125.458 132.527 127.455 127.5 127.455ZM127.5 39C109.074 39.0209 91.4084 46.3499 78.3792 59.3792C65.3499 72.4084 58.0209 90.0739 58 108.5C58 133.299 69.4596 159.583 91.1705 184.516C100.926 195.782 111.906 205.928 123.907 214.764C124.969 215.508 126.235 215.907 127.532 215.907C128.829 215.907 130.094 215.508 131.157 214.764C143.136 205.924 154.094 195.779 163.83 184.516C185.509 159.583 197 133.299 197 108.5C196.979 90.0739 189.65 72.4084 176.621 59.3792C163.592 46.3499 145.926 39.0209 127.5 39ZM127.5 201.693C114.445 191.426 70.6364 153.714 70.6364 108.5C70.6364 93.4188 76.6273 78.9553 87.2913 68.2913C97.9553 57.6273 112.419 51.6364 127.5 51.6364C142.581 51.6364 157.045 57.6273 167.709 68.2913C178.373 78.9553 184.364 93.4188 184.364 108.5C184.364 153.699 140.555 191.426 127.5 201.693Z" fill="#213D3A"/>
</svg>
