<svg width="30" height="30" viewBox="0 0 262 262" fill="none" xmlns="http://www.w3.org/2000/svg">
<g filter="url(#filter0_d_378_3752)">
<circle cx="131" cy="127" r="127" fill="white"/>
<path d="M180.289 77.0157C176.22 67.3002 169.37 59.004 160.601 53.1693C151.831 47.3346 141.533 44.2217 131 44.2217C120.467 44.2217 110.169 47.3346 101.399 53.1693C92.6296 59.004 85.78 67.3002 81.711 77.0157C72.954 81.0709 65.5328 87.5359 60.3155 95.6544C55.0983 103.773 52.3007 113.209 52.25 122.859C52.1727 150.155 74.3 172.922 101.567 173.625C109.816 173.84 117.991 172.027 125.375 168.345V196.125C125.375 197.617 125.968 199.048 127.023 200.103C128.077 201.157 129.508 201.75 131 201.75C132.492 201.75 133.923 201.157 134.978 200.103C136.032 199.048 136.625 197.617 136.625 196.125V168.345C143.613 171.829 151.317 173.637 159.125 173.625H160.433C187.7 172.922 209.827 150.169 209.75 122.873C209.703 113.221 206.907 103.781 201.689 95.6596C196.472 87.5382 189.049 81.0712 180.289 77.0157ZM160.145 162.375C152.021 162.602 144.029 160.291 137.279 155.766C137.059 155.625 136.841 155.491 136.625 155.365V126.473L167.267 111.159C167.928 110.829 168.518 110.371 169.002 109.813C169.486 109.255 169.856 108.606 170.09 107.905C170.324 107.204 170.417 106.463 170.364 105.726C170.312 104.989 170.115 104.269 169.784 103.608C169.454 102.947 168.996 102.357 168.438 101.873C167.879 101.389 167.231 101.019 166.53 100.785C165.829 100.552 165.088 100.458 164.351 100.511C163.614 100.563 162.894 100.76 162.233 101.091L136.625 113.902V94.875C136.625 93.3832 136.032 91.9525 134.978 90.8976C133.923 89.8427 132.492 89.25 131 89.25C129.508 89.25 128.077 89.8427 127.023 90.8976C125.968 91.9525 125.375 93.3832 125.375 94.875V130.777L99.7672 117.966C98.432 117.298 96.8863 117.188 95.4701 117.66C94.0539 118.132 92.8832 119.148 92.2156 120.483C91.548 121.818 91.4382 123.364 91.9103 124.78C92.3823 126.196 93.3976 127.367 94.7328 128.034L125.375 143.348V155.344C125.155 155.47 124.937 155.604 124.721 155.745C117.972 160.274 109.981 162.591 101.855 162.375C92.9626 162.153 84.4069 158.926 77.5823 153.22C70.7577 147.514 66.0664 139.665 64.2726 130.952C62.4788 122.239 63.6882 113.176 67.7039 105.238C71.7195 97.3001 78.3048 90.956 86.3867 87.2391C88.9428 86.068 90.9638 83.9767 92.0469 81.3821C95.2577 73.7086 100.665 67.1556 107.59 62.5467C114.514 57.9378 122.647 55.4788 130.965 55.4788C139.283 55.4788 147.415 57.9378 154.34 62.5467C161.265 67.1556 166.672 73.7086 169.883 81.3821C170.966 83.9767 172.987 86.068 175.543 87.2391C183.625 90.956 190.21 97.3001 194.226 105.238C198.242 113.176 199.451 122.239 197.657 130.952C195.863 139.665 191.172 147.514 184.347 153.22C177.523 158.926 168.967 162.153 160.074 162.375H160.145Z" fill="#213D3A"/>
</g>
<defs>
<filter id="filter0_d_378_3752" x="0" y="0" width="262" height="262" filterUnits="userSpaceOnUse" color-interpolation-filters="sRGB">
<feFlood flood-opacity="0" result="BackgroundImageFix"/>
<feColorMatrix in="SourceAlpha" type="matrix" values="0 0 0 0 0 0 0 0 0 0 0 0 0 0 0 0 0 0 127 0" result="hardAlpha"/>
<feOffset dy="4"/>
<feGaussianBlur stdDeviation="2"/>
<feComposite in2="hardAlpha" operator="out"/>
<feColorMatrix type="matrix" values="0 0 0 0 0 0 0 0 0 0 0 0 0 0 0 0 0 0 0.25 0"/>
<feBlend mode="normal" in2="BackgroundImageFix" result="effect1_dropShadow_378_3752"/>
<feBlend mode="normal" in="SourceGraphic" in2="effect1_dropShadow_378_3752" result="shape"/>
</filter>
</defs>
</svg>
