<svg width="262" height="262" viewBox="0 0 262 262" fill="none" xmlns="http://www.w3.org/2000/svg">
<g filter="url(#filter0_d_378_3754)">
<circle cx="131" cy="127" r="127" fill="white"/>
<path d="M196.844 56.1562H64.1562C60.9571 56.1563 57.8889 57.4271 55.6268 59.6893C53.3646 61.9514 52.0938 65.0196 52.0938 68.2188V176.781C52.0938 179.98 53.3646 183.049 55.6268 185.311C57.8889 187.573 60.9571 188.844 64.1562 188.844H196.844C200.043 188.844 203.111 187.573 205.373 185.311C207.635 183.049 208.906 179.98 208.906 176.781V68.2188C208.906 65.0196 207.635 61.9514 205.373 59.6893C203.111 57.4271 200.043 56.1563 196.844 56.1562ZM196.844 176.781H64.1562V68.2188H196.844V176.781ZM166.688 92.3438C166.688 101.941 162.875 111.146 156.088 117.932C149.302 124.719 140.098 128.531 130.5 128.531C120.902 128.531 111.698 124.719 104.912 117.932C98.1251 111.146 94.3125 101.941 94.3125 92.3438C94.3125 90.7442 94.9479 89.2101 96.079 88.079C97.2101 86.9479 98.7442 86.3125 100.344 86.3125C101.943 86.3125 103.477 86.9479 104.608 88.079C105.74 89.2101 106.375 90.7442 106.375 92.3438C106.375 98.7421 108.917 104.878 113.441 109.403C117.965 113.927 124.102 116.469 130.5 116.469C136.898 116.469 143.035 113.927 147.559 109.403C152.083 104.878 154.625 98.7421 154.625 92.3438C154.625 90.7442 155.26 89.2101 156.392 88.079C157.523 86.9479 159.057 86.3125 160.656 86.3125C162.256 86.3125 163.79 86.9479 164.921 88.079C166.052 89.2101 166.688 90.7442 166.688 92.3438Z" fill="#213D3A"/>
</g>
<defs>
<filter id="filter0_d_378_3754" x="0" y="0" width="262" height="262" filterUnits="userSpaceOnUse" color-interpolation-filters="sRGB">
<feFlood flood-opacity="0" result="BackgroundImageFix"/>
<feColorMatrix in="SourceAlpha" type="matrix" values="0 0 0 0 0 0 0 0 0 0 0 0 0 0 0 0 0 0 127 0" result="hardAlpha"/>
<feOffset dy="4"/>
<feGaussianBlur stdDeviation="2"/>
<feComposite in2="hardAlpha" operator="out"/>
<feColorMatrix type="matrix" values="0 0 0 0 0 0 0 0 0 0 0 0 0 0 0 0 0 0 0.25 0"/>
<feBlend mode="normal" in2="BackgroundImageFix" result="effect1_dropShadow_378_3754"/>
<feBlend mode="normal" in="SourceGraphic" in2="effect1_dropShadow_378_3754" result="shape"/>
</filter>
</defs>
</svg>
