<svg width="30" height="30" viewBox="0 0 262 262" fill="none" xmlns="http://www.w3.org/2000/svg">
<g filter="url(#filter0_d_431_3768)">
<circle cx="131" cy="127" r="127" fill="white"/>
</g>
<path d="M158.64 88.2195C162.816 88.2195 166.897 86.9815 170.368 84.6619C173.84 82.3423 176.546 79.0454 178.143 75.1881C179.741 71.3308 180.159 67.0863 179.345 62.9915C178.53 58.8966 176.52 55.1352 173.567 52.1829C170.615 49.2307 166.854 47.2202 162.759 46.4056C158.664 45.5911 154.419 46.0091 150.562 47.6069C146.705 49.2046 143.408 51.9103 141.088 55.3818C138.769 58.8533 137.531 62.9346 137.531 67.1098C137.531 72.7084 139.755 78.0778 143.714 82.0366C147.672 85.9955 153.042 88.2195 158.64 88.2195ZM158.64 58.0627C160.43 58.0627 162.179 58.5933 163.667 59.5874C165.154 60.5815 166.314 61.9945 166.999 63.6476C167.684 65.3007 167.863 67.1198 167.514 68.8748C167.165 70.6297 166.303 72.2417 165.038 73.507C163.772 74.7722 162.16 75.6339 160.405 75.983C158.65 76.332 156.831 76.1529 155.178 75.4681C153.525 74.7834 152.112 73.6238 151.118 72.136C150.124 70.6482 149.593 68.8991 149.593 67.1098C149.593 64.7103 150.547 62.4092 152.243 60.7125C153.94 59.0159 156.241 58.0627 158.64 58.0627ZM227.157 175.614L186.023 106.193C184.962 104.385 183.445 102.887 181.623 101.849C179.801 100.812 177.738 100.271 175.641 100.282C173.546 100.271 171.484 100.812 169.663 101.849C167.842 102.887 166.326 104.385 165.267 106.193L145.545 139.486L111.739 82.1128C110.674 80.3023 109.154 78.8014 107.331 77.7586C105.507 76.7158 103.443 76.1673 101.343 76.1673C99.2419 76.1673 97.1777 76.7158 95.3543 77.7586C93.5308 78.8014 92.0112 80.3023 90.946 82.1128L35.8344 175.629C35.295 176.545 35.0072 177.587 35.0001 178.65C34.9931 179.713 35.2671 180.759 35.7944 181.682C36.3217 182.605 37.0835 183.372 38.0028 183.906C38.922 184.439 39.966 184.721 41.0289 184.721H221.97C223.034 184.721 224.08 184.439 225 183.904C225.92 183.369 226.683 182.6 227.21 181.675C227.736 180.75 228.009 179.702 228 178.637C227.99 177.573 227.7 176.53 227.157 175.614ZM101.343 88.2195L119.112 118.376H83.5726L101.343 88.2195ZM51.5838 172.659L76.4632 130.439H126.222L140.35 154.414L151.101 172.659H51.5838ZM165.102 172.659L152.541 151.338L175.641 112.345L211.415 172.659H165.102Z" fill="#213D3A"/>
<defs>
<filter id="filter0_d_431_3768" x="0" y="0" width="262" height="262" filterUnits="userSpaceOnUse" color-interpolation-filters="sRGB">
<feFlood flood-opacity="0" result="BackgroundImageFix"/>
<feColorMatrix in="SourceAlpha" type="matrix" values="0 0 0 0 0 0 0 0 0 0 0 0 0 0 0 0 0 0 127 0" result="hardAlpha"/>
<feOffset dy="4"/>
<feGaussianBlur stdDeviation="2"/>
<feComposite in2="hardAlpha" operator="out"/>
<feColorMatrix type="matrix" values="0 0 0 0 0 0 0 0 0 0 0 0 0 0 0 0 0 0 0.25 0"/>
<feBlend mode="normal" in2="BackgroundImageFix" result="effect1_dropShadow_431_3768"/>
<feBlend mode="normal" in="SourceGraphic" in2="effect1_dropShadow_431_3768" result="shape"/>
</filter>
</defs>
</svg>
