<svg width="32" height="32" viewBox="0 0 32 32" fill="none" xmlns="http://www.w3.org/2000/svg">
<path d="M24.7625 7.82501C24.0391 6.09781 22.8214 4.62293 21.2624 3.58565C19.7034 2.54837 17.8726 1.99496 16 1.99496C14.1275 1.99496 12.2967 2.54837 10.7377 3.58565C9.17863 4.62293 7.96093 6.09781 7.23754 7.82501C5.68074 8.54594 4.36142 9.69527 3.43391 11.1386C2.5064 12.5818 2.00905 14.2594 2.00004 15.975C1.98629 20.8275 5.92004 24.875 10.7675 25C12.2339 25.0383 13.6873 24.7159 15 24.0613V29C15 29.2652 15.1054 29.5196 15.2929 29.7071C15.4805 29.8946 15.7348 30 16 30C16.2653 30 16.5196 29.8946 16.7071 29.7071C16.8947 29.5196 17 29.2652 17 29V24.0613C18.2423 24.6808 19.6119 25.0022 21 25H21.2325C26.08 24.875 30.0138 20.83 30 15.9775C29.9917 14.2614 29.4946 12.5833 28.567 11.1395C27.6395 9.69569 26.3198 8.54599 24.7625 7.82501ZM21.1813 23C19.7371 23.0403 18.3163 22.6296 17.1163 21.825C17.0771 21.8 17.0384 21.7763 17 21.7538V16.6175L22.4475 13.895C22.5651 13.8362 22.6699 13.7549 22.756 13.6556C22.8421 13.5564 22.9078 13.4411 22.9493 13.3164C22.9909 13.1918 23.0075 13.0601 22.9982 12.9291C22.9888 12.798 22.9538 12.67 22.895 12.5525C22.8363 12.435 22.7549 12.3302 22.6557 12.2441C22.5564 12.158 22.4411 12.0923 22.3165 12.0507C22.1918 12.0092 22.0602 11.9926 21.9291 12.0019C21.798 12.0112 21.6701 12.0462 21.5525 12.105L17 14.3825V11C17 10.7348 16.8947 10.4804 16.7071 10.2929C16.5196 10.1054 16.2653 10 16 10C15.7348 10 15.4805 10.1054 15.2929 10.2929C15.1054 10.4804 15 10.7348 15 11V17.3825L10.4475 15.105C10.2102 14.9863 9.93537 14.9668 9.68361 15.0507C9.43184 15.1346 9.22372 15.3151 9.10504 15.5525C8.98635 15.7899 8.96682 16.0647 9.05074 16.3164C9.13467 16.5682 9.31517 16.7763 9.55254 16.895L15 19.6175V21.75C14.9609 21.7725 14.9221 21.7963 14.8838 21.8213C13.6839 22.6265 12.2633 23.0384 10.8188 23C9.23782 22.9605 7.71681 22.3868 6.50355 21.3724C5.29029 20.358 4.45627 18.9627 4.13738 17.4137C3.81848 15.8648 4.03349 14.2534 4.74739 12.8423C5.46128 11.4311 6.63199 10.3033 8.06879 9.64251C8.5232 9.4343 8.88249 9.06252 9.07504 8.60126C9.64584 7.23709 10.6072 6.0721 11.8382 5.25274C13.0692 4.43339 14.515 3.99623 15.9938 3.99623C17.4726 3.99623 18.9183 4.43339 20.1494 5.25274C21.3804 6.0721 22.3417 7.23709 22.9125 8.60126C23.1051 9.06252 23.4644 9.4343 23.9188 9.64251C25.3556 10.3033 26.5263 11.4311 27.2402 12.8423C27.9541 14.2534 28.1691 15.8648 27.8502 17.4137C27.5313 18.9627 26.6973 20.358 25.484 21.3724C24.2708 22.3868 22.7498 22.9605 21.1688 23H21.1813Z" fill="#627573"/>
</svg>
