<svg width="34" height="34" viewBox="0 0 34 34" fill="none" xmlns="http://www.w3.org/2000/svg">
<path d="M15.4066 27.3417L6.0566 17.9917C5.91493 17.85 5.81435 17.6965 5.75485 17.5313C5.69535 17.366 5.66607 17.1889 5.66701 17C5.66701 16.8111 5.69676 16.634 5.75626 16.4688C5.81576 16.3035 5.91588 16.15 6.0566 16.0083L15.4066 6.65834C15.6663 6.39862 15.9912 6.26309 16.3813 6.25175C16.7713 6.24042 17.1075 6.37595 17.3899 6.65834C17.6733 6.91806 17.8211 7.24295 17.8333 7.633C17.8456 8.02306 17.7096 8.35928 17.4253 8.64167L10.4837 15.5833H26.3149C26.7163 15.5833 27.053 15.7193 27.325 15.9913C27.597 16.2633 27.7325 16.5996 27.7316 17C27.7316 17.4014 27.5961 17.7381 27.325 18.0101C27.054 18.2821 26.7173 18.4176 26.3149 18.4167H10.4837L17.4253 25.3583C17.6851 25.6181 17.8211 25.9486 17.8333 26.35C17.8456 26.7514 17.7096 27.0819 17.4253 27.3417C17.1656 27.625 16.8351 27.7667 16.4337 27.7667C16.0323 27.7667 15.6899 27.625 15.4066 27.3417Z" fill="white"/>
</svg>
