<svg width="276" height="852" viewBox="0 0 276 852" fill="none" xmlns="http://www.w3.org/2000/svg">
<path d="M79.7876 852L65.2956 823.6C50.7221 795.2 21.7381 738.4 30.3681 681.6C39.0796 624.8 85.4867 568 104.782 511.2C123.996 454.4 116.181 397.6 95.0938 340.8C74.0885 284 39.8938 227.2 21.8195 170.4C3.82655 113.6 1.87256 56.8 0.976989 28.4L0 0H276V28.4C276 56.8 276 113.6 276 170.4C276 227.2 276 284 276 340.8C276 397.6 276 454.4 276 511.2C276 568 276 624.8 276 681.6C276 738.4 276 795.2 276 823.6V852H79.7876Z" fill="#CBD0CF"/>
</svg>
