<svg width="25" height="26" viewBox="0 0 25 26" fill="none" xmlns="http://www.w3.org/2000/svg">
<path d="M8 11V21C8 21.2652 7.89464 21.5196 7.70711 21.7071C7.51957 21.8946 7.26522 22 7 22C6.73478 22 6.48043 21.8946 6.29289 21.7071C6.10536 21.5196 6 21.2652 6 21V11C6 10.7348 6.10536 10.4804 6.29289 10.2929C6.48043 10.1054 6.73478 10 7 10C7.26522 10 7.51957 10.1054 7.70711 10.2929C7.89464 10.4804 8 10.7348 8 11ZM13 10C12.7348 10 12.4804 10.1054 12.2929 10.2929C12.1054 10.4804 12 10.7348 12 11V21C12 21.2652 12.1054 21.5196 12.2929 21.7071C12.4804 21.8946 12.7348 22 13 22C13.2652 22 13.5196 21.8946 13.7071 21.7071C13.8946 21.5196 14 21.2652 14 21V11C14 10.7348 13.8946 10.4804 13.7071 10.2929C13.5196 10.1054 13.2652 10 13 10ZM25 12V20C25 20.7956 24.6839 21.5587 24.1213 22.1213C23.5587 22.6839 22.7956 23 22 23H20V24C20 24.5304 19.7893 25.0391 19.4142 25.4142C19.0391 25.7893 18.5304 26 18 26H2C1.46957 26 0.960859 25.7893 0.585786 25.4142C0.210714 25.0391 0 24.5304 0 24V7C0 3.14 3.58875 0 8 0C10.0963 0 12.1138 0.725 13.6025 2H15C16.3261 2 17.5979 2.52678 18.5355 3.46447C19.4732 4.40215 20 5.67392 20 7V9H22C22.7956 9 23.5587 9.31607 24.1213 9.87868C24.6839 10.4413 25 11.2044 25 12ZM2.125 6H17.8275C17.6208 5.41525 17.2379 4.90894 16.7315 4.55078C16.2251 4.19261 15.6202 4.00019 15 4H13.2175C12.9599 3.99997 12.7123 3.90057 12.5263 3.7225C11.3825 2.625 9.73375 2 8 2C5.1025 2 2.67875 3.72 2.125 6ZM18 24V8H2V24H18ZM23 12C23 11.7348 22.8946 11.4804 22.7071 11.2929C22.5196 11.1054 22.2652 11 22 11H20V21H22C22.2652 21 22.5196 20.8946 22.7071 20.7071C22.8946 20.5196 23 20.2652 23 20V12Z" fill="#627573"/>
</svg>
