<svg width="40" height="40" viewBox="0 0 40 40" fill="none" xmlns="http://www.w3.org/2000/svg">
<path d="M19.9997 5.50751L19.0234 6.71876L14.0234 12.9688L13.7497 13.32V21.1713L6.83594 25.5088L8.16344 27.6175L8.74969 27.265V33.75H18.7497V28.75C18.7497 28.0425 19.2922 27.5 19.9997 27.5C20.7072 27.5 21.2497 28.0425 21.2497 28.75V33.75H31.2497V27.265L31.8359 27.6175L33.1634 25.5075L26.2497 21.1725V13.32L25.9759 12.9688L20.9759 6.71876L19.9997 5.50751ZM19.9997 9.49251L23.7497 14.18V19.61L20.6634 17.695L19.9997 17.265L19.3359 17.695L16.2497 19.6088V14.18L19.9997 9.49251ZM19.9997 13.75C19.3122 13.75 18.7497 14.3125 18.7497 15C18.7497 15.6875 19.3122 16.25 19.9997 16.25C20.6872 16.25 21.2497 15.6875 21.2497 15C21.2497 14.3125 20.6872 13.75 19.9997 13.75ZM19.9997 20.235L28.7497 25.7038V31.25H23.7497V28.75C23.7497 26.6938 22.0559 25 19.9997 25C17.9434 25 16.2497 26.6938 16.2497 28.75V31.25H11.2497V25.7025L19.9997 20.235Z" fill="#627573"/>
</svg>
