<svg width="42" height="42" viewBox="0 0 42 42" fill="none" xmlns="http://www.w3.org/2000/svg">
<path d="M21 0C16.8466 0 12.7865 1.23163 9.33303 3.53914C5.8796 5.84665 3.18798 9.1264 1.59854 12.9636C0.00909897 16.8009 -0.406771 21.0233 0.403518 25.0969C1.21381 29.1705 3.21386 32.9123 6.15077 35.8492C9.08767 38.7861 12.8295 40.7862 16.9031 41.5965C20.9767 42.4068 25.1991 41.9909 29.0364 40.4015C32.8736 38.812 36.1534 36.1204 38.4609 32.667C40.7684 29.2135 42 25.1534 42 21C41.9941 15.4323 39.7797 10.0942 35.8427 6.15725C31.9058 2.22026 26.5677 0.00587963 21 0ZM38.7692 21C38.771 23.2797 38.3322 25.5382 37.4769 27.6513L28.451 22.1005C28.0672 21.8637 27.6379 21.7102 27.191 21.6502L22.5831 21.0283C21.9481 20.9455 21.3029 21.0519 20.7282 21.3342C20.1535 21.6166 19.6748 22.0622 19.3523 22.6154H17.5915L16.8242 21.0283C16.6121 20.5863 16.3017 20.1988 15.9167 19.8954C15.5317 19.5919 15.0823 19.3806 14.6031 19.2776L12.9877 18.9283L14.5667 16.1538H17.9409C18.4869 16.1528 19.0237 16.0139 19.5017 15.75L21.9753 14.385C22.1926 14.2639 22.3958 14.1189 22.5811 13.9529L28.0148 9.03808C28.5596 8.54985 28.9217 7.89051 29.0414 7.16882C29.161 6.44713 29.0311 5.7062 28.6731 5.06827L28.6004 4.93702C31.6409 6.37874 34.2103 8.65319 36.0102 11.4964C37.8101 14.3396 38.7668 17.635 38.7692 21ZM24.0914 3.50135L25.8462 6.64327L20.4124 11.5581L17.9409 12.9231H14.5667C13.9988 12.9222 13.4407 13.0711 12.9487 13.3547C12.4566 13.6383 12.048 14.0466 11.764 14.5385L10.0013 17.6137L7.95174 12.1537L10.1608 6.93C12.1161 5.4192 14.3654 4.33346 16.7646 3.74235C19.1639 3.15123 21.6601 3.06777 24.0935 3.49731L24.0914 3.50135ZM3.23078 21C3.22808 18.3589 3.81733 15.7507 4.9552 13.3673L7.24501 19.4795C7.43583 19.9856 7.75065 20.4356 8.1606 20.7884C8.57054 21.1412 9.0625 21.3855 9.59135 21.4987L13.9186 22.4296L14.6879 24.0288C14.9549 24.5728 15.3687 25.0312 15.8825 25.3523C16.3963 25.6734 16.9897 25.8445 17.5956 25.8461H17.8944L16.4345 29.1234C16.1773 29.7004 16.0949 30.3402 16.1976 30.9636C16.3002 31.587 16.5834 32.1666 17.012 32.6308L17.0403 32.659L21 36.7379L20.6083 38.7571C15.9677 38.6491 11.5532 36.7318 8.30656 33.4143C5.05997 30.0968 3.23848 25.6418 3.23078 21ZM23.944 38.5229L24.1722 37.3497C24.266 36.8513 24.2418 36.3378 24.1015 35.8505C23.9613 35.3631 23.7089 34.9153 23.3645 34.543C23.3546 34.5341 23.3452 34.5246 23.3363 34.5147L19.3846 30.4379L22.151 24.2308L26.7588 24.8527L35.9908 30.5308C34.6533 32.6312 32.8901 34.4278 30.815 35.8045C28.74 37.1811 26.3993 38.1072 23.944 38.5229Z" fill="white"/>
</svg>
