<svg width="38" height="38" viewBox="0 0 38 38" fill="none" xmlns="http://www.w3.org/2000/svg">
<path d="M19 0C15.2422 0 11.5687 1.11433 8.44417 3.20208C5.31964 5.28982 2.88436 8.25722 1.4463 11.729C0.0082324 15.2008 -0.368031 19.0211 0.365088 22.7067C1.09821 26.3924 2.90778 29.7778 5.56498 32.435C8.22218 35.0922 11.6077 36.9018 15.2933 37.6349C18.9789 38.368 22.7992 37.9918 26.271 36.5537C29.7428 35.1156 32.7102 32.6804 34.7979 29.5558C36.8857 26.4313 38 22.7578 38 19C37.9947 13.9625 35.9912 9.13288 32.4292 5.57085C28.8671 2.00881 24.0375 0.00531967 19 0ZM35.0769 19C35.0785 21.0626 34.6815 23.106 33.9077 25.0179L25.7413 19.9957C25.3941 19.7814 25.0057 19.6426 24.6014 19.5883L20.4323 19.0256C19.8578 18.9507 19.274 19.047 18.7541 19.3024C18.2341 19.5578 17.8011 19.9611 17.5092 20.4615H15.9162L15.2219 19.0256C15.03 18.6257 14.7491 18.2751 14.4008 18.0006C14.0525 17.726 13.6459 17.5348 13.2123 17.4416L11.7508 17.1256L13.1794 14.6154H16.2322C16.7262 14.6144 17.212 14.4887 17.6444 14.25L19.8824 13.015C20.079 12.9054 20.2628 12.7743 20.4305 12.624L25.3467 8.17731C25.8396 7.73558 26.1672 7.13903 26.2755 6.48607C26.3838 5.83311 26.2663 5.16275 25.9423 4.58558L25.8765 4.46683C28.6275 5.77124 30.9522 7.82908 32.5807 10.4015C34.2092 12.9739 35.0747 15.9554 35.0769 19ZM21.797 3.16788L23.3846 6.01058L18.4684 10.4573L16.2322 11.6923H13.1794C12.6656 11.6915 12.1606 11.8263 11.7154 12.0828C11.2703 12.3394 10.9006 12.7088 10.6437 13.1538L9.04876 15.9362L7.19443 10.9962L9.19308 6.27C10.9622 4.90308 12.9973 3.92075 15.168 3.38593C17.3387 2.85111 19.5972 2.7756 21.7989 3.16423L21.797 3.16788ZM2.92308 19C2.92064 16.6104 3.45377 14.2507 4.48328 12.0942L6.55501 17.6243C6.72766 18.0822 7.01249 18.4894 7.3834 18.8086C7.7543 19.1278 8.1994 19.3488 8.67789 19.4512L12.593 20.2935L13.289 21.7404C13.5306 22.2325 13.905 22.6473 14.3699 22.9378C14.8347 23.2284 15.3716 23.3831 15.9198 23.3846H16.1902L14.8693 26.3497C14.6366 26.8718 14.5621 27.4507 14.6549 28.0147C14.7478 28.5787 15.004 29.1032 15.3918 29.5231L15.4174 29.5486L19 33.239L18.6456 35.066C14.447 34.9683 10.4529 33.2335 7.51546 30.232C4.57807 27.2304 2.93005 23.1997 2.92308 19ZM21.6637 34.854L21.8701 33.7926C21.9549 33.3416 21.933 32.8771 21.8062 32.4361C21.6793 31.9952 21.4509 31.59 21.1393 31.2532C21.1304 31.2451 21.1218 31.2366 21.1138 31.2276L17.5385 27.539L20.0413 21.9231L24.2104 22.4858L32.5631 27.6231C31.353 29.5235 29.7577 31.149 27.8803 32.3945C26.0028 33.64 23.885 34.4779 21.6637 34.854Z" fill="#627573"/>
</svg>
