<svg width="33" height="33" viewBox="0 0 33 33" fill="none" xmlns="http://www.w3.org/2000/svg">
<path d="M16.5 3.09375C13.8485 3.09375 11.2565 3.88001 9.05189 5.35311C6.84725 6.82621 5.12893 8.91998 4.11425 11.3697C3.09956 13.8193 2.83407 16.5149 3.35135 19.1154C3.86864 21.716 5.14546 24.1048 7.02036 25.9797C8.89525 27.8546 11.284 29.1314 13.8846 29.6487C16.4851 30.1659 19.1807 29.9004 21.6304 28.8858C24.08 27.8711 26.1738 26.1528 27.6469 23.9481C29.12 21.7435 29.9063 19.1515 29.9063 16.5C29.9028 12.9455 28.4893 9.53754 25.9759 7.02412C23.4625 4.5107 20.0545 3.09716 16.5 3.09375ZM16.5 27.8438C14.2564 27.8438 12.0632 27.1785 10.1978 25.932C8.33229 24.6855 6.87833 22.9139 6.01975 20.8411C5.16117 18.7683 4.93652 16.4874 5.37422 14.2869C5.81192 12.0865 6.89231 10.0652 8.47876 8.47876C10.0652 6.89231 12.0865 5.81192 14.287 5.37422C16.4874 4.93652 18.7683 5.16116 20.8411 6.01974C22.9139 6.87832 24.6855 8.33228 25.932 10.1978C27.1785 12.0632 27.8438 14.2564 27.8438 16.5C27.8403 19.5075 26.6441 22.3909 24.5175 24.5175C22.3909 26.6441 19.5075 27.8403 16.5 27.8438ZM21.3598 19.8902C21.5534 20.0858 21.6621 20.3498 21.6621 20.625C21.6621 20.9002 21.5534 21.1642 21.3598 21.3598C21.1627 21.5504 20.8992 21.6569 20.625 21.6569C20.3508 21.6569 20.0874 21.5504 19.8902 21.3598L16.5 17.9566L13.1098 21.3598C12.9127 21.5504 12.6492 21.6569 12.375 21.6569C12.1008 21.6569 11.8374 21.5504 11.6402 21.3598C11.4466 21.1642 11.338 20.9002 11.338 20.625C11.338 20.3498 11.4466 20.0858 11.6402 19.8902L15.0434 16.5L11.6402 13.1098C11.4758 12.9094 11.3918 12.655 11.4045 12.3961C11.4172 12.1372 11.5257 11.8923 11.709 11.709C11.8923 11.5257 12.1372 11.4172 12.3961 11.4045C12.655 11.3918 12.9094 11.4758 13.1098 11.6402L16.5 15.0434L19.8902 11.6402C20.0906 11.4758 20.345 11.3918 20.6039 11.4045C20.8628 11.4172 21.1077 11.5257 21.291 11.709C21.4743 11.8923 21.5828 12.1372 21.5955 12.3961C21.6083 12.655 21.5242 12.9094 21.3598 13.1098L17.9566 16.5L21.3598 19.8902Z" fill="white"/>
</svg>
