<svg width="115" height="48" viewBox="0 0 115 48" fill="none" xmlns="http://www.w3.org/2000/svg">
<rect x="1.5" y="1.5" width="112" height="45" rx="18.5" fill="white" stroke="#627573" stroke-width="3"/>
<path d="M38.8167 28H32.3847V17.216H38.7527V18.864H34.4167V21.792H38.2727V23.424H34.4167V26.352H38.8167V28ZM41.8138 28H39.7018L42.5338 23.904L39.8778 19.888H42.0378L43.5578 22.528L45.1578 19.888H47.3018L44.4858 23.92L47.2058 28H45.0778L43.4778 25.28L41.8138 28ZM50.1628 31.056H48.2428V19.888H50.1628V21.136C50.7388 20.2293 51.5655 19.776 52.6428 19.776C53.6988 19.776 54.5361 20.1547 55.1548 20.912C55.7841 21.6693 56.0988 22.6667 56.0988 23.904C56.0988 25.12 55.7841 26.128 55.1548 26.928C54.5361 27.7173 53.6935 28.112 52.6268 28.112C51.5388 28.112 50.7175 27.6693 50.1628 26.784V31.056ZM50.7708 22.032C50.3655 22.448 50.1628 23.0667 50.1628 23.888C50.1628 24.7093 50.3601 25.344 50.7548 25.792C51.1495 26.24 51.6241 26.464 52.1788 26.464C52.7548 26.464 53.2241 26.2453 53.5868 25.808C53.9495 25.36 54.1308 24.736 54.1308 23.936C54.1308 23.136 53.9495 22.5173 53.5868 22.08C53.2241 21.632 52.7655 21.408 52.2108 21.408C51.6561 21.408 51.1761 21.616 50.7708 22.032ZM59.4228 28H57.5028V16.688H59.4228V28ZM68.6511 23.92C68.6511 25.1467 68.3044 26.1547 67.6111 26.944C66.9284 27.7333 65.9684 28.128 64.7311 28.128C63.5044 28.128 62.5444 27.744 61.8511 26.976C61.1684 26.208 60.8271 25.2267 60.8271 24.032C60.8271 22.7947 61.1844 21.776 61.8991 20.976C62.6137 20.1653 63.5577 19.76 64.7311 19.76C65.9791 19.76 66.9444 20.1547 67.6271 20.944C68.3097 21.7227 68.6511 22.7147 68.6511 23.92ZM62.8431 23.968C62.8431 24.7147 63.0084 25.3387 63.3391 25.84C63.6697 26.3413 64.1391 26.592 64.7471 26.592C65.3764 26.592 65.8511 26.3467 66.1711 25.856C66.4911 25.3653 66.6511 24.7413 66.6511 23.984C66.6511 23.2053 66.4964 22.5707 66.1871 22.08C65.8777 21.5787 65.3924 21.328 64.7311 21.328C64.1231 21.328 63.6537 21.5787 63.3231 22.08C63.0031 22.5813 62.8431 23.2107 62.8431 23.968ZM71.9059 28H69.9699L69.9859 19.888H71.9059V21.328C72.2793 20.3253 72.9619 19.824 73.9539 19.824C74.1779 19.824 74.3593 19.84 74.4979 19.872V21.728C74.2526 21.6213 73.9806 21.568 73.6819 21.568C73.1593 21.568 72.7326 21.7813 72.4019 22.208C72.0713 22.6347 71.9059 23.168 71.9059 23.808V28ZM81.4986 27.552C80.9332 27.904 80.1172 28.08 79.0506 28.08C77.7599 28.08 76.7412 27.696 75.9946 26.928C75.2479 26.16 74.8746 25.168 74.8746 23.952C74.8746 22.6613 75.2266 21.648 75.9306 20.912C76.6346 20.176 77.5146 19.808 78.5706 19.808C79.6266 19.808 80.4639 20.128 81.0826 20.768C81.7012 21.408 82.0106 22.3413 82.0106 23.568C82.0106 23.8667 81.9732 24.2507 81.8986 24.72H76.8106C76.9492 25.3067 77.2372 25.7547 77.6746 26.064C78.1226 26.3733 78.6772 26.528 79.3386 26.528C80.1919 26.528 80.9119 26.3147 81.4986 25.888V27.552ZM78.6186 21.312C78.1599 21.312 77.7599 21.4827 77.4186 21.824C77.0879 22.1547 76.8746 22.64 76.7786 23.28H80.1866V23.04C80.1652 22.5173 80.0212 22.1013 79.7546 21.792C79.4986 21.472 79.1199 21.312 78.6186 21.312Z" fill="#627573"/>
</svg>
