<svg width="32" height="42" viewBox="0 0 32 42" fill="none" xmlns="http://www.w3.org/2000/svg">
<path d="M16 9.00009C14.5616 9.00009 13.1555 9.43996 11.9595 10.2641C10.7635 11.0882 9.83133 12.2596 9.28088 13.63C8.73042 15.0005 8.5864 16.5085 8.86702 17.9634C9.14764 19.4182 9.8403 20.7546 10.8574 21.8035C11.8745 22.8524 13.1704 23.5667 14.5812 23.8561C15.9919 24.1455 17.4542 23.997 18.7832 23.4293C20.1121 22.8617 21.2479 21.9004 22.0471 20.667C22.8462 19.4336 23.2727 17.9835 23.2727 16.5002C23.2727 14.511 22.5065 12.6033 21.1426 11.1968C19.7787 9.79027 17.9288 9.00009 16 9.00009ZM16 21.0002C15.137 21.0002 14.2933 20.7363 13.5757 20.2418C12.8581 19.7473 12.2988 19.0445 11.9685 18.2223C11.6383 17.4 11.5518 16.4952 11.7202 15.6223C11.8886 14.7493 12.3042 13.9475 12.9144 13.3182C13.5247 12.6888 14.3022 12.2602 15.1487 12.0866C15.9952 11.913 16.8725 12.0021 17.6699 12.3427C18.4672 12.6833 19.1488 13.26 19.6282 14.0001C20.1077 14.7401 20.3636 15.6101 20.3636 16.5002C20.3636 17.6937 19.9039 18.8383 19.0856 19.6822C18.2672 20.5261 17.1573 21.0002 16 21.0002ZM16 0C11.758 0.00496267 7.69115 1.74496 4.69161 4.83827C1.69207 7.93157 0.00481224 12.1256 0 16.5002C0 22.3877 2.63818 28.6278 7.63636 34.5472C9.88222 37.2221 12.4099 39.6307 15.1727 41.7285C15.4173 41.9052 15.7087 42 16.0073 42C16.3059 42 16.5973 41.9052 16.8418 41.7285C19.5995 39.6298 22.1223 37.2212 24.3636 34.5472C29.3545 28.6278 32 22.3877 32 16.5002C31.9952 12.1256 30.3079 7.93157 27.3084 4.83827C24.3089 1.74496 20.242 0.00496267 16 0ZM16 38.6254C12.9945 36.1879 2.90909 27.2346 2.90909 16.5002C2.90909 12.9197 4.28831 9.48589 6.74333 6.95413C9.19835 4.42236 12.5281 3.00003 16 3.00003C19.4719 3.00003 22.8016 4.42236 25.2567 6.95413C27.7117 9.48589 29.0909 12.9197 29.0909 16.5002C29.0909 27.2309 19.0055 36.1879 16 38.6254Z" fill="white"/>
</svg>
