<svg width="41" height="52" viewBox="0 0 41 52" fill="none" xmlns="http://www.w3.org/2000/svg">
<path d="M20.5 11.143C18.657 11.143 16.8555 11.6876 15.3231 12.7079C13.7907 13.7282 12.5964 15.1785 11.8911 16.8753C11.1859 18.572 11.0013 20.4391 11.3609 22.2403C11.7204 24.0416 12.6079 25.6962 13.9111 26.9948C15.2142 28.2935 16.8746 29.1779 18.6821 29.5362C20.4897 29.8945 22.3632 29.7106 24.0659 29.0077C25.7686 28.3049 27.2239 27.1147 28.2478 25.5877C29.2717 24.0606 29.8182 22.2653 29.8182 20.4288C29.8182 17.966 28.8364 15.6041 27.0889 13.8627C25.3415 12.1213 22.9713 11.143 20.5 11.143ZM20.5 26.0003C19.3942 26.0003 18.3133 25.6735 17.3939 25.0613C16.4744 24.4491 15.7578 23.5789 15.3347 22.5609C14.9115 21.5428 14.8008 20.4226 15.0165 19.3418C15.2322 18.2611 15.7647 17.2683 16.5466 16.4891C17.3285 15.71 18.3247 15.1793 19.4093 14.9643C20.4938 14.7494 21.6179 14.8597 22.6395 15.2814C23.6612 15.7031 24.5343 16.4172 25.1487 17.3334C25.763 18.2497 26.0909 19.3268 26.0909 20.4288C26.0909 21.9064 25.5019 23.3236 24.4534 24.3684C23.4049 25.4133 21.9828 26.0003 20.5 26.0003ZM20.5 0C15.065 0.00614426 9.85428 2.16043 6.01112 5.99024C2.16796 9.82004 0.00616568 15.0126 0 20.4288C0 27.7181 3.38017 35.4439 9.78409 42.7727C12.6616 46.0844 15.9002 49.0665 19.4401 51.6639C19.7534 51.8827 20.1267 52 20.5093 52C20.8919 52 21.2652 51.8827 21.5786 51.6639C25.1119 49.0655 28.3442 46.0834 31.2159 42.7727C37.6105 35.4439 41 27.7181 41 20.4288C40.9938 15.0126 38.832 9.82004 34.9889 5.99024C31.1457 2.16043 25.935 0.00614426 20.5 0ZM20.5 47.8219C16.6493 44.804 3.72727 33.7191 3.72727 20.4288C3.72727 15.9958 5.49439 11.7444 8.63989 8.60987C11.7854 5.4753 16.0516 3.71432 20.5 3.71432C24.9484 3.71432 29.2146 5.4753 32.3601 8.60987C35.5056 11.7444 37.2727 15.9958 37.2727 20.4288C37.2727 33.7144 24.3507 44.804 20.5 47.8219Z" fill="#020202"/>
</svg>
