<svg width="273" height="329" viewBox="0 0 273 329" fill="none" xmlns="http://www.w3.org/2000/svg">
<path d="M82.2 294.28V307.24H82.16L82.2 307.68C79.7467 309.44 76.68 310.32 73 310.32C68.7333 310.32 65.28 309.08 62.64 306.6C60.0267 304.12 58.72 300.747 58.72 296.48C58.72 292.32 60.0667 288.96 62.76 286.4C65.48 283.84 68.9067 282.56 73.04 282.56C76.1067 282.56 78.7333 283.133 80.92 284.28V289.44C78.4667 287.973 75.8667 287.24 73.12 287.24C70.4267 287.24 68.2533 288.08 66.6 289.76C64.9467 291.44 64.12 293.68 64.12 296.48C64.12 299.333 64.92 301.587 66.52 303.24C68.1467 304.867 70.3733 305.68 73.2 305.68C74.5867 305.68 75.9333 305.44 77.24 304.96V298.6H72.28V294.28H82.2ZM91.8144 289.72V293.32C92.7477 290.813 94.4544 289.56 96.9344 289.56C97.4944 289.56 97.9477 289.6 98.2944 289.68V294.32C97.681 294.053 97.001 293.92 96.2544 293.92C94.9477 293.92 93.881 294.453 93.0544 295.52C92.2277 296.587 91.8144 297.92 91.8144 299.52V310H86.9744L87.0144 289.72H91.8144ZM112.996 298.2V297.6C112.943 296.293 112.583 295.253 111.916 294.48C111.276 293.68 110.329 293.28 109.076 293.28C107.929 293.28 106.929 293.707 106.076 294.56C105.249 295.387 104.716 296.6 104.476 298.2H112.996ZM116.276 304.72V308.88C114.863 309.76 112.823 310.2 110.156 310.2C106.929 310.2 104.383 309.24 102.516 307.32C100.649 305.4 99.7159 302.92 99.7159 299.88C99.7159 296.653 100.596 294.12 102.356 292.28C104.116 290.44 106.316 289.52 108.956 289.52C111.596 289.52 113.689 290.32 115.236 291.92C116.783 293.52 117.556 295.853 117.556 298.92C117.556 299.667 117.463 300.627 117.276 301.8H104.556C104.903 303.267 105.623 304.387 106.716 305.16C107.836 305.933 109.223 306.32 110.876 306.32C113.009 306.32 114.809 305.787 116.276 304.72ZM133.848 298.2V297.6C133.794 296.293 133.434 295.253 132.768 294.48C132.128 293.68 131.181 293.28 129.928 293.28C128.781 293.28 127.781 293.707 126.928 294.56C126.101 295.387 125.568 296.6 125.328 298.2H133.848ZM137.128 304.72V308.88C135.714 309.76 133.674 310.2 131.008 310.2C127.781 310.2 125.234 309.24 123.368 307.32C121.501 305.4 120.568 302.92 120.568 299.88C120.568 296.653 121.448 294.12 123.208 292.28C124.968 290.44 127.168 289.52 129.808 289.52C132.448 289.52 134.541 290.32 136.088 291.92C137.634 293.52 138.408 295.853 138.408 298.92C138.408 299.667 138.314 300.627 138.128 301.8H125.408C125.754 303.267 126.474 304.387 127.568 305.16C128.688 305.933 130.074 306.32 131.728 306.32C133.861 306.32 135.661 305.787 137.128 304.72ZM147.3 289.72V293.2C148.446 290.72 150.526 289.48 153.54 289.48C155.566 289.48 157.166 290.093 158.34 291.32C159.513 292.547 160.1 294.28 160.1 296.52V310H155.3V297.52C155.3 296.187 154.98 295.187 154.34 294.52C153.7 293.827 152.833 293.48 151.74 293.48C150.486 293.48 149.433 293.973 148.58 294.96C147.726 295.92 147.3 297.307 147.3 299.12V310H142.5V289.72H147.3ZM186.519 290.36V294.6C185.185 293.8 183.519 293.4 181.519 293.4C180.692 293.4 180.039 293.587 179.559 293.96C179.105 294.307 178.879 294.76 178.879 295.32C178.879 295.533 178.905 295.733 178.959 295.92C179.039 296.107 179.159 296.293 179.319 296.48C179.505 296.64 179.679 296.787 179.839 296.92C179.999 297.053 180.225 297.2 180.519 297.36C180.812 297.493 181.065 297.613 181.279 297.72C181.492 297.827 181.785 297.96 182.159 298.12C182.532 298.28 182.825 298.413 183.039 298.52C184.452 299.213 185.572 299.987 186.399 300.84C187.225 301.693 187.639 302.8 187.639 304.16C187.639 306.053 186.959 307.533 185.599 308.6C184.239 309.667 182.425 310.2 180.159 310.2C177.652 310.2 175.625 309.787 174.079 308.96V304.56C175.865 305.76 177.799 306.36 179.879 306.36C180.759 306.36 181.439 306.2 181.919 305.88C182.425 305.533 182.679 305.067 182.679 304.48C182.679 304.133 182.599 303.827 182.439 303.56C182.279 303.267 181.972 302.987 181.519 302.72C181.065 302.453 180.705 302.267 180.439 302.16C180.199 302.027 179.705 301.8 178.959 301.48C178.879 301.453 178.812 301.427 178.759 301.4C178.732 301.373 178.679 301.347 178.599 301.32C178.519 301.293 178.452 301.267 178.399 301.24C175.439 299.907 173.959 297.987 173.959 295.48C173.959 293.613 174.665 292.147 176.079 291.08C177.492 290.013 179.265 289.48 181.399 289.48C183.452 289.48 185.159 289.773 186.519 290.36ZM196.989 293.32V303.64C196.989 304.493 197.216 305.147 197.669 305.6C198.122 306.027 198.749 306.24 199.549 306.24C200.562 306.24 201.496 305.96 202.349 305.4V309.52C201.416 309.973 200.216 310.2 198.749 310.2C194.376 310.2 192.189 307.987 192.189 303.56V293.32H189.149V289.72H192.189V284.84H196.989V289.72H202.029V293.32H196.989ZM218.185 298.2V297.6C218.132 296.293 217.772 295.253 217.105 294.48C216.465 293.68 215.519 293.28 214.265 293.28C213.119 293.28 212.119 293.707 211.265 294.56C210.439 295.387 209.905 296.6 209.665 298.2H218.185ZM221.465 304.72V308.88C220.052 309.76 218.012 310.2 215.345 310.2C212.119 310.2 209.572 309.24 207.705 307.32C205.839 305.4 204.905 302.92 204.905 299.88C204.905 296.653 205.785 294.12 207.545 292.28C209.305 290.44 211.505 289.52 214.145 289.52C216.785 289.52 218.879 290.32 220.425 291.92C221.972 293.52 222.745 295.853 222.745 298.92C222.745 299.667 222.652 300.627 222.465 301.8H209.745C210.092 303.267 210.812 304.387 211.905 305.16C213.025 305.933 214.412 306.32 216.065 306.32C218.199 306.32 219.999 305.787 221.465 304.72ZM236.677 306.16C238.117 306.16 239.291 305.613 240.197 304.52C241.104 303.4 241.557 301.84 241.557 299.84C241.557 297.84 241.104 296.293 240.197 295.2C239.291 294.08 238.144 293.52 236.757 293.52C235.371 293.52 234.171 294.04 233.157 295.08C232.144 296.12 231.637 297.667 231.637 299.72C231.637 301.773 232.131 303.36 233.117 304.48C234.104 305.6 235.291 306.16 236.677 306.16ZM231.637 289.72V292.84C233.077 290.573 235.144 289.44 237.837 289.44C240.477 289.44 242.571 290.387 244.117 292.28C245.691 294.173 246.477 296.667 246.477 299.76C246.477 302.8 245.691 305.32 244.117 307.32C242.571 309.293 240.464 310.28 237.797 310.28C235.077 310.28 233.024 309.173 231.637 306.96V317.64H226.837V289.72H231.637Z" fill="#627573"/>
<path d="M156.8 248.23C201.789 221.245 236.81 182.378 255.816 138.366C274.823 94.3545 277.698 45.4076 263.966 0C187.566 57.6965 144.938 161.801 156.8 248.23Z" fill="#213D3A"/>
<path d="M50.0947 92.9806C46.6132 124.769 54.7367 157.415 73.0854 185.247C91.4341 213.078 119.892 235.985 153.546 250C152.257 190.765 107.849 125.945 50.0947 92.9806Z" fill="#8C9392"/>
</svg>
