<svg width="36" height="36" viewBox="0 0 36 36" fill="none" xmlns="http://www.w3.org/2000/svg">
<path d="M32.625 27H28.125V23.625H31.5C31.6709 23.625 31.8396 23.586 31.9933 23.511C32.1469 23.436 32.2814 23.327 32.3866 23.1923C32.4918 23.0575 32.5649 22.9006 32.6004 22.7334C32.6358 22.5661 32.6327 22.393 32.5912 22.2272L28.0912 4.22719C28.0303 3.98394 27.8898 3.76803 27.6921 3.61375C27.4944 3.45948 27.2508 3.37569 27 3.37569C26.7492 3.37569 26.5056 3.45948 26.3079 3.61375C26.1102 3.76803 25.9697 3.98394 25.9088 4.22719L21.4088 22.2272C21.3673 22.393 21.3642 22.5661 21.3996 22.7334C21.4351 22.9006 21.5082 23.0575 21.6134 23.1923C21.7186 23.327 21.8531 23.436 22.0067 23.511C22.1604 23.586 22.3291 23.625 22.5 23.625H25.875V27H16.875V24.75H18C18.2984 24.75 18.5845 24.6315 18.7955 24.4205C19.0065 24.2095 19.125 23.9234 19.125 23.625C19.125 23.3266 19.0065 23.0405 18.7955 22.8295C18.5845 22.6185 18.2984 22.5 18 22.5H16.875V20.25H18C18.2984 20.25 18.5845 20.1315 18.7955 19.9205C19.0065 19.7095 19.125 19.4234 19.125 19.125C19.125 18.8266 19.0065 18.5405 18.7955 18.3295C18.5845 18.1185 18.2984 18 18 18H5.625C5.32663 18 5.04048 18.1185 4.8295 18.3295C4.61853 18.5405 4.5 18.8266 4.5 19.125C4.5 19.4234 4.61853 19.7095 4.8295 19.9205C5.04048 20.1315 5.32663 20.25 5.625 20.25H6.75V22.5H5.625C5.32663 22.5 5.04048 22.6185 4.8295 22.8295C4.61853 23.0405 4.5 23.3266 4.5 23.625C4.5 23.9234 4.61853 24.2095 4.8295 24.4205C5.04048 24.6315 5.32663 24.75 5.625 24.75H6.75V27H3.375C3.07663 27 2.79048 27.1185 2.5795 27.3295C2.36853 27.5405 2.25 27.8266 2.25 28.125C2.25 28.4234 2.36853 28.7095 2.5795 28.9205C2.79048 29.1315 3.07663 29.25 3.375 29.25H32.625C32.9234 29.25 33.2095 29.1315 33.4205 28.9205C33.6315 28.7095 33.75 28.4234 33.75 28.125C33.75 27.8266 33.6315 27.5405 33.4205 27.3295C33.2095 27.1185 32.9234 27 32.625 27ZM27 9.14063L30.0586 21.375H23.9414L27 9.14063ZM9 20.25H14.625V22.5H9V20.25ZM9 24.75H14.625V27H9V24.75ZM16.3125 13.5C17.0913 13.5 17.8525 13.2691 18.5001 12.8364C19.1476 12.4038 19.6523 11.7888 19.9503 11.0693C20.2483 10.3498 20.3263 9.55814 20.1743 8.79434C20.0224 8.03054 19.6474 7.32894 19.0967 6.77827C18.5461 6.2276 17.8445 5.85259 17.0807 5.70066C16.3169 5.54873 15.5252 5.62671 14.8057 5.92473C14.0862 6.22275 13.4712 6.72743 13.0386 7.37495C12.6059 8.02247 12.375 8.78374 12.375 9.56251C12.375 10.6068 12.7898 11.6083 13.5283 12.3467C14.2667 13.0852 15.2682 13.5 16.3125 13.5ZM16.3125 7.87501C16.6463 7.87501 16.9725 7.97398 17.25 8.1594C17.5275 8.34483 17.7438 8.60838 17.8715 8.91673C17.9993 9.22508 18.0327 9.56438 17.9676 9.89172C17.9025 10.2191 17.7417 10.5197 17.5057 10.7557C17.2697 10.9918 16.9691 11.1525 16.6417 11.2176C16.3144 11.2827 15.9751 11.2493 15.6667 11.1216C15.3584 10.9938 15.0948 10.7775 14.9094 10.5C14.724 10.2225 14.625 9.89626 14.625 9.56251C14.625 9.11495 14.8028 8.68573 15.1193 8.36926C15.4357 8.0528 15.8649 7.87501 16.3125 7.87501Z" fill="#627573"/>
</svg>
