<svg width="115" height="48" viewBox="0 0 115 48" fill="none" xmlns="http://www.w3.org/2000/svg">
<rect x="1.5" y="1.5" width="112" height="45" rx="18.5" fill="white" stroke="#627573" stroke-width="3"/>
<path d="M47.9887 22.576C47.9887 23.7493 47.7541 24.768 47.2847 25.632C46.8154 26.496 46.1541 27.1413 45.3007 27.568L48.5807 29.472L46.3088 30.352L43.1407 28.112H42.9007C41.3541 28.112 40.1167 27.6053 39.1887 26.592C38.2607 25.5787 37.7967 24.24 37.7967 22.576C37.7967 20.9013 38.2554 19.5573 39.1727 18.544C40.1007 17.5307 41.3381 17.024 42.8847 17.024C44.4527 17.024 45.6954 17.5307 46.6128 18.544C47.5301 19.5467 47.9887 20.8907 47.9887 22.576ZM39.9567 22.576C39.9567 23.7067 40.2234 24.6027 40.7567 25.264C41.2901 25.9253 42.0047 26.256 42.9007 26.256C43.8074 26.256 44.5221 25.9307 45.0447 25.28C45.5674 24.6187 45.8287 23.7173 45.8287 22.576C45.8287 21.4347 45.5674 20.5333 45.0447 19.872C44.5221 19.2107 43.8021 18.88 42.8847 18.88C41.9781 18.88 41.2634 19.2107 40.7407 19.872C40.2181 20.5333 39.9567 21.4347 39.9567 22.576ZM56.445 28H54.509V26.672C54.0823 27.6107 53.2503 28.08 52.013 28.08C51.1917 28.08 50.5517 27.8453 50.093 27.376C49.6343 26.9067 49.405 26.24 49.405 25.376V19.888H51.325V24.928C51.325 25.44 51.4477 25.8293 51.693 26.096C51.949 26.3627 52.2957 26.496 52.733 26.496C53.2877 26.496 53.7197 26.3093 54.029 25.936C54.349 25.5627 54.509 24.9973 54.509 24.24V19.888H56.445V28ZM64.4039 27.552C63.8385 27.904 63.0225 28.08 61.9559 28.08C60.6652 28.08 59.6465 27.696 58.8999 26.928C58.1532 26.16 57.7799 25.168 57.7799 23.952C57.7799 22.6613 58.1319 21.648 58.8359 20.912C59.5399 20.176 60.4199 19.808 61.4759 19.808C62.5319 19.808 63.3692 20.128 63.9879 20.768C64.6065 21.408 64.9159 22.3413 64.9159 23.568C64.9159 23.8667 64.8785 24.2507 64.8039 24.72H59.7159C59.8545 25.3067 60.1425 25.7547 60.5799 26.064C61.0279 26.3733 61.5825 26.528 62.2439 26.528C63.0972 26.528 63.8172 26.3147 64.4039 25.888V27.552ZM61.5239 21.312C61.0652 21.312 60.6652 21.4827 60.3239 21.824C59.9932 22.1547 59.7799 22.64 59.6839 23.28H63.0919V23.04C63.0705 22.5173 62.9265 22.1013 62.6599 21.792C62.4039 21.472 62.0252 21.312 61.5239 21.312ZM71.6566 25.664C71.6566 26.4213 71.3846 27.0133 70.8406 27.44C70.2966 27.8667 69.5713 28.08 68.6646 28.08C67.662 28.08 66.8513 27.9147 66.2326 27.584V25.824C66.9473 26.304 67.7206 26.544 68.5526 26.544C68.9046 26.544 69.1766 26.48 69.3686 26.352C69.5713 26.2133 69.6726 26.0267 69.6726 25.792C69.6726 25.6533 69.6406 25.5307 69.5766 25.424C69.5126 25.3067 69.39 25.1947 69.2086 25.088C69.0273 24.9813 68.8833 24.9067 68.7766 24.864C68.6806 24.8107 68.4833 24.72 68.1846 24.592C68.1526 24.5813 68.126 24.5707 68.1046 24.56C68.094 24.5493 68.0726 24.5387 68.0406 24.528C68.0086 24.5173 67.982 24.5067 67.9606 24.496C66.7766 23.9627 66.1846 23.1947 66.1846 22.192C66.1846 21.4453 66.4673 20.8587 67.0326 20.432C67.598 20.0053 68.3073 19.792 69.1606 19.792C69.982 19.792 70.6646 19.9093 71.2086 20.144V21.84C70.6753 21.52 70.0086 21.36 69.2086 21.36C68.878 21.36 68.6166 21.4347 68.4246 21.584C68.2433 21.7227 68.1526 21.904 68.1526 22.128C68.1526 22.2133 68.1633 22.2933 68.1846 22.368C68.2166 22.4427 68.2646 22.5173 68.3286 22.592C68.4033 22.656 68.4726 22.7147 68.5366 22.768C68.6006 22.8213 68.6913 22.88 68.8086 22.944C68.926 22.9973 69.0273 23.0453 69.1126 23.088C69.198 23.1307 69.3153 23.184 69.4646 23.248C69.614 23.312 69.7313 23.3653 69.8166 23.408C70.382 23.6853 70.83 23.9947 71.1606 24.336C71.4913 24.6773 71.6566 25.12 71.6566 25.664ZM77.3488 27.808C76.9754 27.9893 76.4954 28.08 75.9088 28.08C74.1594 28.08 73.2848 27.1947 73.2848 25.424V21.328H72.0688V19.888H73.2848V17.936H75.2048V19.888H77.2208V21.328H75.2048V25.456C75.2048 25.7973 75.2954 26.0587 75.4768 26.24C75.6581 26.4107 75.9088 26.496 76.2288 26.496C76.6341 26.496 77.0074 26.384 77.3488 26.16V27.808Z" fill="#627573"/>
</svg>
