<svg width="29" height="29" viewBox="0 0 29 29" fill="none" xmlns="http://www.w3.org/2000/svg">
<path fill-rule="evenodd" clip-rule="evenodd" d="M9.81122 7.92667C9.81122 5.62794 12.0964 3.72167 14.4996 3.72167C16.9027 3.72167 19.1879 5.62794 19.1879 7.92667C19.1879 10.0514 18.111 11.0471 16.663 12.3327L16.603 12.3849C15.1666 13.659 13.3879 15.2347 13.3879 18.3667C13.3879 18.5127 13.4166 18.6572 13.4725 18.7921C13.5284 18.927 13.6103 19.0495 13.7135 19.1527C13.8167 19.256 13.9393 19.3378 14.0741 19.3937C14.209 19.4496 14.3536 19.4783 14.4996 19.4783C14.6455 19.4783 14.7901 19.4496 14.925 19.3937C15.0598 19.3378 15.1824 19.256 15.2856 19.1527C15.3888 19.0495 15.4707 18.927 15.5266 18.7921C15.5825 18.6572 15.6112 18.5127 15.6112 18.3667C15.6112 16.269 16.6823 15.2849 18.1381 13.9973L18.1768 13.9587C19.6229 12.6788 21.4112 11.0935 21.4112 7.92667C21.4112 4.11414 17.823 1.49834 14.4996 1.49834C11.1762 1.49834 7.58789 4.11414 7.58789 7.92667C7.58789 8.07265 7.61664 8.21721 7.67251 8.35209C7.72838 8.48696 7.81026 8.60951 7.91349 8.71274C8.01672 8.81596 8.13927 8.89785 8.27414 8.95371C8.40901 9.00958 8.55357 9.03834 8.69956 9.03834C8.84554 9.03834 8.9901 9.00958 9.12497 8.95371C9.25985 8.89785 9.3824 8.81596 9.48562 8.71274C9.58885 8.60951 9.67074 8.48696 9.7266 8.35209C9.78247 8.21721 9.81122 8.07265 9.81122 7.92667ZM14.4996 25.8255C14.9482 25.8255 15.3785 25.6472 15.6957 25.33C16.013 25.0127 16.1912 24.5825 16.1912 24.1338C16.1912 23.6851 16.013 23.2549 15.6957 22.9376C15.3785 22.6204 14.9482 22.4421 14.4996 22.4421C14.0509 22.4421 13.6206 22.6204 13.3034 22.9376C12.9861 23.2549 12.8079 23.6851 12.8079 24.1338C12.8079 24.5825 12.9861 25.0127 13.3034 25.33C13.6206 25.6472 14.0509 25.8255 14.4996 25.8255Z" fill="white"/>
</svg>
