<svg width="62" height="62" viewBox="0 0 62 62" fill="none" xmlns="http://www.w3.org/2000/svg">
<path d="M22.1417 53.1416C22.1417 53.729 21.9084 54.2922 21.4931 54.7075C21.0778 55.1229 20.5145 55.3562 19.9271 55.3562H6.63968C5.47381 55.3555 4.32865 55.048 3.31924 54.4646C2.30982 53.8812 1.47171 53.0425 0.889079 52.0326C0.30645 51.0228 -0.000177507 49.8774 7.7092e-08 48.7116C0.000177661 47.5457 0.307154 46.4005 0.890091 45.3908L10.3823 28.9895L6.49296 30.0275C6.21123 30.1028 5.91743 30.1218 5.62835 30.0835C5.33926 30.0452 5.06055 29.9503 4.80813 29.8043C4.29833 29.5095 3.92655 29.0242 3.77457 28.4552C3.6226 27.8862 3.70288 27.2802 3.99775 26.7704C4.29262 26.2606 4.77794 25.8888 5.34692 25.7369L14.4184 23.3092C14.6994 23.2339 14.9925 23.2146 15.2809 23.2526C15.5694 23.2906 15.8475 23.385 16.0994 23.5305C16.3514 23.676 16.5722 23.8697 16.7492 24.1006C16.9262 24.3314 17.0561 24.5949 17.1312 24.876L19.5645 33.9472C19.6413 34.2295 19.6615 34.5242 19.6238 34.8144C19.5861 35.1045 19.4913 35.3843 19.3448 35.6375C19.1984 35.8908 19.0032 36.1126 18.7705 36.29C18.5379 36.4674 18.2724 36.5969 17.9894 36.6711C17.8013 36.7201 17.6079 36.7452 17.4136 36.7458C16.9264 36.7454 16.453 36.5843 16.0666 36.2875C15.6803 35.9908 15.4026 35.5749 15.2765 35.1043L14.2246 31.1874L4.73238 47.6053C4.53845 47.9412 4.43613 48.3221 4.43567 48.7099C4.4352 49.0978 4.5366 49.4789 4.72972 49.8153C4.92284 50.1516 5.20091 50.4314 5.53609 50.6265C5.87128 50.8216 6.25184 50.9253 6.63968 50.9271H19.9271C20.5145 50.9271 21.0778 51.1604 21.4931 51.5757C21.9084 51.991 22.1417 52.5543 22.1417 53.1416ZM61.0988 45.3908L54.6932 34.3182C54.3867 33.8361 53.9059 33.4912 53.3511 33.3553C52.7963 33.2194 52.2105 33.3031 51.716 33.5889C51.2215 33.8748 50.8565 34.3406 50.6974 34.8892C50.5382 35.4377 50.5972 36.0266 50.862 36.5327L57.2676 47.6053C57.4615 47.9412 57.5639 48.3221 57.5643 48.7099C57.5648 49.0978 57.4634 49.4789 57.2703 49.8153C57.0772 50.1516 56.7991 50.4314 56.4639 50.6265C56.1287 50.8216 55.7482 50.9253 55.3603 50.9271H36.3454L39.2078 48.0648C39.6233 47.6497 39.8569 47.0864 39.8572 46.499C39.8574 45.9116 39.6243 45.3482 39.2091 44.9327C38.794 44.5171 38.2307 44.2835 37.6433 44.2833C37.0559 44.283 36.4925 44.5161 36.0769 44.9313L29.4332 51.5749C29.2273 51.7805 29.0639 52.0248 28.9525 52.2936C28.841 52.5624 28.7837 52.8506 28.7837 53.1416C28.7837 53.4327 28.841 53.7208 28.9525 53.9897C29.0639 54.2585 29.2273 54.5027 29.4332 54.7084L36.0769 61.352C36.2827 61.5576 36.5269 61.7206 36.7957 61.8318C37.0644 61.943 37.3525 62.0001 37.6433 62C37.9342 61.9999 38.2222 61.9425 38.4908 61.831C38.7595 61.7196 39.0036 61.5564 39.2091 61.3506C39.4147 61.1449 39.5778 60.9006 39.6889 60.6319C39.8001 60.3631 39.8573 60.0751 39.8572 59.7842C39.857 59.4934 39.7996 59.2054 39.6882 58.9368C39.5768 58.6681 39.4135 58.424 39.2078 58.2184L36.3454 55.3562H55.3603C56.5262 55.3555 57.6713 55.048 58.6808 54.4646C59.6902 53.8812 60.5283 53.0425 61.1109 52.0326C61.6935 51.0228 62.0002 49.8774 62 48.7116C61.9998 47.5457 61.6928 46.4005 61.1099 45.3908H61.0988ZM31 4.42206C31.3892 4.41815 31.7723 4.51885 32.1093 4.71363C32.4463 4.90841 32.7247 5.19012 32.9156 5.52932L42.4078 21.9307L38.5102 20.8843C37.9498 20.7528 37.3603 20.8446 36.8664 21.1403C36.3726 21.436 36.0133 21.9123 35.8647 22.4683C35.716 23.0244 35.7897 23.6165 36.0701 24.1191C36.3506 24.6218 36.8157 24.9955 37.3669 25.1611L46.4411 27.5943C46.6282 27.6434 46.8207 27.6686 47.0141 27.6691C47.5013 27.6686 47.9747 27.5075 48.3611 27.2107C48.7474 26.914 49.0252 26.4981 49.1512 26.0275L51.5845 16.9507C51.668 16.6674 51.694 16.3701 51.6609 16.0765C51.6278 15.7829 51.5363 15.4989 51.3918 15.2413C51.2472 14.9836 51.0526 14.7574 50.8193 14.5761C50.586 14.3948 50.3188 14.262 50.0335 14.1855C49.7481 14.1091 49.4503 14.0905 49.1576 14.1309C48.8649 14.1712 48.5833 14.2698 48.3293 14.4207C48.0752 14.5715 47.854 14.7717 47.6785 15.0094C47.5031 15.2471 47.3769 15.5175 47.3076 15.8047L46.2556 19.7272L36.7496 3.31479C36.1659 2.30674 35.3275 1.46985 34.3184 0.888052C33.3092 0.306255 32.1648 0 31 0C29.8352 0 28.6908 0.306255 27.6816 0.888052C26.6725 1.46985 25.8341 2.30674 25.2504 3.31479L18.8392 14.3874C18.5638 14.8947 18.4973 15.4895 18.6539 16.045C18.8105 16.6006 19.1779 17.0731 19.6777 17.3618C20.1776 17.6505 20.7704 17.7327 21.3299 17.5907C21.8894 17.4488 22.3714 17.094 22.6732 16.602L29.0844 5.52932C29.2753 5.19012 29.5537 4.90841 29.8907 4.71363C30.2277 4.51885 30.6108 4.41815 31 4.42206Z" fill="#627573"/>
</svg>
