<svg width="32" height="32" viewBox="0 0 32 32" fill="none" xmlns="http://www.w3.org/2000/svg">
<path d="M9.00001 11V5C9.00001 4.73478 9.10537 4.48043 9.2929 4.29289C9.48044 4.10536 9.73479 4 10 4C10.2652 4 10.5196 4.10536 10.7071 4.29289C10.8947 4.48043 11 4.73478 11 5V11C11 11.2652 10.8947 11.5196 10.7071 11.7071C10.5196 11.8946 10.2652 12 10 12C9.73479 12 9.48044 11.8946 9.2929 11.7071C9.10537 11.5196 9.00001 11.2652 9.00001 11ZM27 5V28C27 28.2652 26.8947 28.5196 26.7071 28.7071C26.5196 28.8946 26.2652 29 26 29C25.7348 29 25.4804 28.8946 25.2929 28.7071C25.1054 28.5196 25 28.2652 25 28V22H19C18.7348 22 18.4804 21.8946 18.2929 21.7071C18.1054 21.5196 18 21.2652 18 21C18.0464 18.6046 18.349 16.221 18.9025 13.89C20.125 8.82875 22.4425 5.43625 25.6063 4.08125C25.7583 4.01611 25.9242 3.98972 26.0889 4.00443C26.2537 4.01914 26.4123 4.0745 26.5504 4.16555C26.6885 4.25659 26.8019 4.38048 26.8803 4.52612C26.9588 4.67175 26.9999 4.83457 27 5ZM25 6.7375C20.9788 9.80875 20.1913 17.29 20.0375 20H25V6.7375ZM14.9863 4.83625C14.9667 4.70494 14.9211 4.57885 14.8523 4.46533C14.7835 4.3518 14.6927 4.25312 14.5854 4.17504C14.478 4.09695 14.3562 4.04103 14.227 4.01053C14.0977 3.98002 13.9638 3.97556 13.8328 3.99738C13.7018 4.01921 13.5766 4.06689 13.4642 4.13765C13.3519 4.20841 13.2548 4.30082 13.1785 4.40951C13.1023 4.51819 13.0485 4.64097 13.0202 4.77068C12.9919 4.90039 12.9897 5.03444 13.0138 5.165L14 11.0787C14 12.1396 13.5786 13.157 12.8284 13.9072C12.0783 14.6573 11.0609 15.0787 10 15.0787C8.93914 15.0787 7.92173 14.6573 7.17158 13.9072C6.42144 13.157 6.00001 12.1396 6.00001 11.0787L6.98501 5.165C7.00907 5.03444 7.00689 4.90039 6.9786 4.77068C6.95031 4.64097 6.89648 4.51819 6.82024 4.40951C6.744 4.30082 6.64688 4.20841 6.53455 4.13765C6.42222 4.06689 6.29692 4.01921 6.16597 3.99738C6.03501 3.97556 5.90103 3.98002 5.77182 4.01053C5.64261 4.04103 5.52077 4.09695 5.4134 4.17504C5.30603 4.25312 5.21529 4.3518 5.14646 4.46533C5.07763 4.57885 5.03209 4.70494 5.01251 4.83625L4.01251 10.8363C4.00395 10.8904 3.99977 10.9452 4.00001 11C4.00201 12.4173 4.50491 13.7882 5.41984 14.8706C6.33478 15.9529 7.60286 16.6771 9.00001 16.915V28C9.00001 28.2652 9.10537 28.5196 9.2929 28.7071C9.48044 28.8946 9.73479 29 10 29C10.2652 29 10.5196 28.8946 10.7071 28.7071C10.8947 28.5196 11 28.2652 11 28V16.915C12.3972 16.6771 13.6652 15.9529 14.5802 14.8706C15.4951 13.7882 15.998 12.4173 16 11C15.9998 10.9451 15.9952 10.8904 15.9863 10.8363L14.9863 4.83625Z" fill="#627573"/>
</svg>
