<svg width="36" height="36" viewBox="0 0 36 36" fill="none" xmlns="http://www.w3.org/2000/svg">
<path d="M30.375 5.625H5.625C5.02826 5.625 4.45597 5.86205 4.03401 6.28401C3.61205 6.70597 3.375 7.27826 3.375 7.875V28.125C3.375 28.7217 3.61205 29.294 4.03401 29.716C4.45597 30.1379 5.02826 30.375 5.625 30.375H30.375C30.9717 30.375 31.544 30.1379 31.966 29.716C32.3879 29.294 32.625 28.7217 32.625 28.125V7.875C32.625 7.27826 32.3879 6.70597 31.966 6.28401C31.544 5.86205 30.9717 5.625 30.375 5.625ZM30.375 28.125H5.625V7.875H30.375V28.125ZM24.75 12.375C24.75 14.1652 24.0388 15.8821 22.773 17.148C21.5071 18.4138 19.7902 19.125 18 19.125C16.2098 19.125 14.4929 18.4138 13.227 17.148C11.9612 15.8821 11.25 14.1652 11.25 12.375C11.25 12.0766 11.3685 11.7905 11.5795 11.5795C11.7905 11.3685 12.0766 11.25 12.375 11.25C12.6734 11.25 12.9595 11.3685 13.1705 11.5795C13.3815 11.7905 13.5 12.0766 13.5 12.375C13.5 13.5685 13.9741 14.7131 14.818 15.557C15.6619 16.4009 16.8065 16.875 18 16.875C19.1935 16.875 20.3381 16.4009 21.182 15.557C22.0259 14.7131 22.5 13.5685 22.5 12.375C22.5 12.0766 22.6185 11.7905 22.8295 11.5795C23.0405 11.3685 23.3266 11.25 23.625 11.25C23.9234 11.25 24.2095 11.3685 24.4205 11.5795C24.6315 11.7905 24.75 12.0766 24.75 12.375Z" fill="#627573"/>
</svg>
