<svg width="44" height="42" viewBox="0 0 44 42" fill="none" xmlns="http://www.w3.org/2000/svg">
<path d="M43.415 15.8079C43.2265 15.2272 42.8715 14.7147 42.3939 14.3344C41.9164 13.954 41.3375 13.7225 40.7294 13.6687L29.1799 12.6731L24.6527 1.90734C24.417 1.34244 24.0194 0.859913 23.51 0.520508C23.0007 0.181104 22.4022 0 21.7901 0C21.178 0 20.5796 0.181104 20.0702 0.520508C19.5609 0.859913 19.1633 1.34244 18.9276 1.90734L14.414 12.6731L2.85094 13.6746C2.24038 13.7259 1.65856 13.9563 1.17844 14.337C0.698314 14.7176 0.341264 15.2316 0.152062 15.8143C-0.0371396 16.3971 -0.0500718 17.0227 0.114888 17.6128C0.279848 18.2029 0.615356 18.7312 1.07934 19.1313L9.85178 26.7973L7.22257 38.1814C7.08355 38.7771 7.12322 39.4006 7.33662 39.974C7.55003 40.5473 7.9277 41.045 8.42243 41.4048C8.91715 41.7646 9.50697 41.9707 10.1181 41.9971C10.7293 42.0235 11.3347 41.8692 11.8587 41.5535L21.7765 35.525L31.7158 41.5535C32.2397 41.8692 32.8451 42.0235 33.4563 41.9971C34.0675 41.9707 34.6573 41.7646 35.152 41.4048C35.6468 41.045 36.0244 40.5473 36.2378 39.974C36.4512 39.4006 36.4909 38.7771 36.3519 38.1814L33.7246 26.7856L42.4951 19.1313C42.959 18.7298 43.2939 18.2 43.4576 17.6087C43.6212 17.0174 43.6064 16.3908 43.415 15.8079ZM40.4552 16.7802L31.6847 24.4345C31.2578 24.8058 30.9403 25.2864 30.7662 25.8247C30.5921 26.3631 30.5681 26.9386 30.6968 27.4896L33.3318 38.8931L23.4003 32.8647C22.9158 32.5696 22.3594 32.4135 21.7921 32.4135C21.2248 32.4135 20.6684 32.5696 20.1838 32.8647L10.266 38.8931L12.8835 27.4973C13.0122 26.9464 12.9882 26.3708 12.8141 25.8325C12.64 25.2942 12.3225 24.8136 11.8956 24.4423L3.12125 16.7919C3.12054 16.7861 3.12054 16.7802 3.12125 16.7744L14.6804 15.7748C15.2448 15.7251 15.7848 15.5222 16.2423 15.1881C16.6998 14.8539 17.0574 14.4012 17.2766 13.8788L21.7901 3.12665L26.3018 13.8788C26.5209 14.4012 26.8785 14.8539 27.336 15.1881C27.7935 15.5222 28.3336 15.7251 28.8979 15.7748L40.459 16.7744V16.788L40.4552 16.7802Z" fill="white"/>
</svg>
