<svg width="22" height="23" viewBox="0 0 22 23" fill="none" xmlns="http://www.w3.org/2000/svg">
<path d="M11.1328 11.7695C13.9219 11.7695 16.1953 9.28516 16.1953 6.26172C16.1953 3.26172 13.9336 0.90625 11.1328 0.90625C8.35547 0.90625 6.07031 3.30859 6.07031 6.28516C6.08203 9.29688 8.34375 11.7695 11.1328 11.7695ZM11.1328 10C9.42188 10 7.95703 8.35938 7.95703 6.28516C7.95703 4.24609 9.39844 2.67578 11.1328 2.67578C12.8789 2.67578 14.3086 4.22266 14.3086 6.26172C14.3086 8.33594 12.8555 10 11.1328 10ZM3.76172 22.6094H18.4922C20.4375 22.6094 21.3633 22.0234 21.3633 20.7344C21.3633 17.6641 17.4844 13.2227 11.1328 13.2227C4.76953 13.2227 0.890625 17.6641 0.890625 20.7344C0.890625 22.0234 1.81641 22.6094 3.76172 22.6094ZM3.21094 20.8398C2.90625 20.8398 2.77734 20.7578 2.77734 20.5117C2.77734 18.5898 5.75391 14.9922 11.1328 14.9922C16.5 14.9922 19.4766 18.5898 19.4766 20.5117C19.4766 20.7578 19.3594 20.8398 19.0547 20.8398H3.21094Z" fill="white"/>
</svg>
