<svg width="33" height="42" viewBox="0 0 33 42" fill="none" xmlns="http://www.w3.org/2000/svg">
<path d="M20.5506 12C21.7133 12 22.8498 11.6481 23.8165 10.9888C24.7833 10.3295 25.5367 9.39246 25.9817 8.2961C26.4266 7.19975 26.543 5.99335 26.3162 4.82946C26.0894 3.66557 25.5295 2.59648 24.7074 1.75736C23.8852 0.918247 22.8378 0.346802 21.6975 0.115291C20.5571 -0.11622 19.3751 0.00259969 18.301 0.456725C17.2268 0.910851 16.3087 1.67989 15.6628 2.66658C15.0168 3.65328 14.6721 4.81331 14.6721 6C14.6721 7.5913 15.2914 9.11742 16.3938 10.2426C17.4963 11.3679 18.9915 12 20.5506 12ZM20.5506 3C21.1319 3 21.7002 3.17595 22.1836 3.50559C22.6669 3.83524 23.0437 4.30377 23.2661 4.85195C23.4886 5.40013 23.5468 6.00333 23.4334 6.58527C23.32 7.16722 23.04 7.70176 22.629 8.12132C22.2179 8.54088 21.6942 8.8266 21.124 8.94236C20.5539 9.05811 19.9629 8.9987 19.4258 8.77164C18.8887 8.54458 18.4297 8.16006 18.1067 7.66671C17.7837 7.17336 17.6113 6.59335 17.6113 6C17.6113 5.20435 17.921 4.44129 18.4722 3.87868C19.0234 3.31607 19.7711 3 20.5506 3ZM32.3077 24C32.3077 24.3978 32.1529 24.7794 31.8772 25.0607C31.6016 25.342 31.2278 25.5 30.8381 25.5C24.3515 25.5 21.1109 22.1606 18.5078 19.4775C18.0045 18.9581 17.5232 18.465 17.0382 18.0075L14.571 23.7975L21.4048 28.7794C21.5952 28.9182 21.7503 29.1013 21.8574 29.3136C21.9644 29.5259 22.0202 29.7612 22.0202 30V40.5C22.0202 40.8978 21.8654 41.2794 21.5898 41.5607C21.3142 41.842 20.9404 42 20.5506 42C20.1608 42 19.787 41.842 19.5114 41.5607C19.2358 41.2794 19.081 40.8978 19.081 40.5V30.7725L13.3733 26.61L7.20263 41.0981C7.08843 41.3662 6.89996 41.5944 6.66041 41.7546C6.42085 41.9148 6.14065 42.0001 5.85424 42C5.65244 42.0005 5.45278 41.9577 5.26822 41.8744C4.91096 41.7159 4.62998 41.419 4.48703 41.0492C4.34407 40.6793 4.35084 40.2666 4.50585 39.9019L14.4406 16.5825C12.7303 16.2731 10.5975 16.8075 8.06604 18.1912C6.04713 19.3279 4.16282 20.6975 2.4502 22.2731C2.16433 22.5345 1.78964 22.6713 1.40622 22.6544C1.0228 22.6375 0.661065 22.4682 0.398343 22.1827C0.135621 21.8971 -0.00724569 21.518 0.000283154 21.1264C0.007812 20.7348 0.165138 20.3617 0.438633 20.0869C0.897894 19.6462 11.7714 9.35625 18.5739 15.3844C19.2775 16.0069 19.9481 16.6969 20.5947 17.3663C23.1574 20.0063 25.5768 22.5 30.8381 22.5C31.2278 22.5 31.6016 22.658 31.8772 22.9393C32.1529 23.2206 32.3077 23.6022 32.3077 24Z" fill="white"/>
</svg>
