<svg width="32" height="32" viewBox="0 0 32 32" fill="none" xmlns="http://www.w3.org/2000/svg">
<path d="M4.29161 9.71C4.19826 9.61708 4.12418 9.50664 4.07364 9.38501C4.02309 9.26338 3.99707 9.13296 3.99707 9.00125C3.99707 8.86954 4.02309 8.73912 4.07364 8.61749C4.12418 8.49586 4.19826 8.38542 4.29161 8.2925C4.38786 8.19875 6.63786 6 11.0004 6C13.3029 6 15.0304 7.15125 16.5554 8.1675C17.9679 9.11 19.3029 10 21.0004 10C22.3709 10.0205 23.7282 9.72849 24.9691 9.14625C25.4504 8.92422 25.8977 8.63509 26.2979 8.2875C26.3911 8.195 26.5016 8.12177 26.6232 8.07199C26.7447 8.02221 26.8749 7.99686 27.0062 7.99739C27.1375 7.99791 27.2675 8.02429 27.3886 8.07504C27.5098 8.12578 27.6197 8.19989 27.7122 8.29313C27.8047 8.38636 27.878 8.49691 27.9277 8.61845C27.9775 8.73999 28.0029 8.87014 28.0023 9.00148C28.0018 9.13281 27.9754 9.26276 27.9247 9.3839C27.874 9.50504 27.7998 9.615 27.7066 9.7075C27.6129 9.80125 25.3629 12 21.0004 12C18.6979 12 16.9704 10.8488 15.4454 9.8325C14.0329 8.89 12.6979 8 11.0004 8C9.62978 7.97954 8.27254 8.27151 7.03161 8.85375C6.55034 9.07578 6.10298 9.36491 5.70286 9.7125C5.51512 9.8988 5.26121 10.0031 4.99672 10.0027C4.73223 10.0022 4.47869 9.89696 4.29161 9.71ZM26.2979 15.2875C25.8977 15.6351 25.4504 15.9242 24.9691 16.1462C23.7282 16.7285 22.3709 17.0205 21.0004 17C19.3029 17 17.9679 16.11 16.5554 15.1675C15.0304 14.1512 13.3029 13 11.0004 13C6.63786 13 4.38786 15.1987 4.29411 15.2925C4.10581 15.4793 3.99943 15.7333 3.99837 15.9985C3.99732 16.2638 4.10167 16.5186 4.28849 16.7069C4.4753 16.8952 4.72926 17.0016 4.99451 17.0026C5.25975 17.0037 5.51456 16.8993 5.70286 16.7125C6.10298 16.3649 6.55034 16.0758 7.03161 15.8538C8.27254 15.2715 9.62978 14.9795 11.0004 15C12.6979 15 14.0329 15.89 15.4454 16.8325C16.9704 17.8488 18.6954 19 21.0004 19C25.3629 19 27.6129 16.8013 27.7066 16.7075C27.7998 16.615 27.874 16.505 27.9247 16.3839C27.9754 16.2628 28.0018 16.1328 28.0023 16.0015C28.0029 15.8701 27.9775 15.74 27.9277 15.6184C27.878 15.4969 27.8047 15.3864 27.7122 15.2931C27.6197 15.1999 27.5098 15.1258 27.3886 15.075C27.2675 15.0243 27.1375 14.9979 27.0062 14.9974C26.8749 14.9969 26.7447 15.0222 26.6232 15.072C26.5016 15.1218 26.3911 15.195 26.2979 15.2875ZM26.2979 22.2875C25.8977 22.6351 25.4504 22.9242 24.9691 23.1462C23.7282 23.7285 22.3709 24.0205 21.0004 24C19.3029 24 17.9679 23.11 16.5554 22.1675C15.0304 21.1512 13.3029 20 11.0004 20C6.63786 20 4.38786 22.1987 4.29411 22.2925C4.10581 22.4793 3.99943 22.7333 3.99837 22.9985C3.99732 23.2638 4.10167 23.5186 4.28849 23.7069C4.4753 23.8952 4.72926 24.0016 4.99451 24.0026C5.25975 24.0037 5.51456 23.8993 5.70286 23.7125C6.10298 23.3649 6.55034 23.0758 7.03161 22.8538C8.27254 22.2715 9.62978 21.9795 11.0004 22C12.6979 22 14.0329 22.89 15.4454 23.8325C16.9704 24.8488 18.6954 26 21.0004 26C25.3629 26 27.6129 23.8013 27.7066 23.7075C27.8949 23.5207 28.0013 23.2667 28.0023 23.0015C28.0034 22.7362 27.899 22.4814 27.7122 22.2931C27.5254 22.1048 27.2715 21.9984 27.0062 21.9974C26.741 21.9963 26.4862 22.1007 26.2979 22.2875Z" fill="#627573"/>
</svg>
